<svg width="68" height="68" viewBox="0 0 68 68" fill="none" xmlns="http://www.w3.org/2000/svg">
<rect width="68" height="68" fill="white"/>
<path fill-rule="evenodd" clip-rule="evenodd" d="M33.2717 32.449C33.7422 32.0837 34.0245 31.7722 34.0245 31.2708C34.0245 30.6752 33.527 30.31 32.922 30.31C32.3174 30.31 31.8872 30.6484 31.8872 31.2846C31.8872 31.8266 32.2502 32.2192 32.5727 32.5301L32.8281 32.7742L33.2717 32.449ZM34.8176 36.7954L32.492 34.3718L32.1024 34.629C31.5245 35.0218 31.242 35.5093 31.242 36.1187C31.242 37.0932 31.9545 37.6077 32.976 37.6077C33.7019 37.6077 34.3205 37.3367 34.8176 36.7954ZM36.8476 34.1148C37.2931 34.1148 37.6369 34.5162 37.5186 34.9488C37.3361 35.6163 37.0586 36.2436 36.6865 36.7818L37.4201 37.5351C37.6754 37.7972 37.6751 38.2171 37.4193 38.4788C37.1574 38.7469 36.7282 38.7468 36.4663 38.4787L35.768 37.7637L35.5973 37.9193C34.8312 38.5692 33.9036 38.9213 32.922 38.9213C31.0535 38.9213 29.7363 37.9598 29.7363 36.1594C29.7363 34.8321 30.583 34.0742 31.3898 33.546L31.5672 33.4325L31.3898 33.2213C30.8117 32.5302 30.4891 32.0701 30.4891 31.2579C30.4891 29.9987 31.43 29.0776 32.8817 29.0776C34.3204 29.0776 35.4226 29.89 35.4226 31.2303C35.4226 32.273 34.71 32.8823 33.6345 33.6408L35.6779 35.7666C35.8617 35.4582 35.9999 35.098 36.1 34.7235C36.1927 34.3768 36.4911 34.1148 36.8476 34.1148Z" fill="#E73C3E"/>
<path fill-rule="evenodd" clip-rule="evenodd" d="M13.3281 15.2969C13.3281 14.0283 14.3565 13 15.625 13H22.1875C23.2748 13 24.1563 13.8814 24.1563 14.9687C24.1563 16.056 23.2748 16.9375 22.1875 16.9375H18.25C17.7063 16.9375 17.2656 17.3782 17.2656 17.9219V20.218C17.2656 20.7616 17.7063 21.2024 18.25 21.2024H21.7353C22.6416 21.2024 23.3763 21.937 23.3763 22.8434C23.3763 23.7496 22.6416 24.4843 21.7353 24.4843H18.25C17.7063 24.4843 17.2656 24.925 17.2656 25.4687V30.0624C17.2656 31.1497 16.3842 32.0312 15.2969 32.0312C14.2096 32.0312 13.3281 31.1497 13.3281 30.0624V15.2969Z" fill="#E73C3E"/>
<path fill-rule="evenodd" clip-rule="evenodd" d="M28.4238 13C29.5112 13 30.3926 13.8814 30.3926 14.9687V20.2187C30.3926 21.6685 31.377 23.1718 33.0176 23.1718C34.6582 23.1718 35.6426 21.6685 35.6426 20.2187V14.9687C35.6426 13.8814 36.524 13 37.6114 13C38.6987 13 39.5801 13.8814 39.5801 14.9687V20.2187C39.5801 23.8431 36.642 26.4531 33.0176 26.4531C29.3932 26.4531 26.4551 23.8431 26.4551 20.2187V14.9687C26.4551 13.8814 27.3365 13 28.4238 13Z" fill="#E73C3E"/>
<path fill-rule="evenodd" clip-rule="evenodd" d="M41.875 14.9687C41.875 13.8814 42.7564 13 43.8438 13H43.8892C44.5992 13 45.2542 13.3823 45.6034 14.0004L51.0625 23.664C51.0625 23.664 51.0625 18.7439 51.0625 14.9685C51.0625 13.8812 51.9439 13 53.0313 13C54.1187 13 55 13.8814 55 14.9687V30.0624C55 31.1497 54.1187 32.0312 53.0313 32.0312H52.9853C52.2756 32.0312 51.6207 31.6489 51.2712 31.0308L45.8123 21.3672C45.8123 21.3672 45.8125 26.1443 45.8125 30.063C45.8125 31.1503 44.9311 32.0312 43.8438 32.0312C42.7564 32.0312 41.875 31.1497 41.875 30.0624V14.9687Z" fill="#E73C3E"/>
<path fill-rule="evenodd" clip-rule="evenodd" d="M41.875 37.9376C41.875 36.8503 42.7564 35.9688 43.8438 35.9688H43.8892C44.5992 35.9688 45.2542 36.3511 45.6034 36.9692L51.0625 46.6328C51.0625 46.6328 51.0625 41.7127 51.0625 37.9373C51.0625 36.85 51.9439 35.9688 53.0313 35.9688C54.1187 35.9688 55 36.8503 55 37.9376V53.0313C55 54.1187 54.1187 55 53.0313 55H52.9853C52.2756 55 51.6207 54.6177 51.2712 53.9996L45.8123 44.336C45.8123 44.336 45.8125 49.1131 45.8125 53.0319C45.8125 54.119 44.9311 55 43.8438 55C42.7564 55 41.875 54.1187 41.875 53.0313V37.9376Z" fill="#E73C3E"/>
<path fill-rule="evenodd" clip-rule="evenodd" d="M28.4238 41.5468C29.5111 41.5468 30.3926 42.4282 30.3926 43.5155V48.7655C30.3926 50.2152 31.377 51.7186 33.0176 51.7186C34.6582 51.7186 35.6426 50.2152 35.6426 48.7655V43.5155C35.6426 42.4282 36.524 41.5468 37.6114 41.5468C38.6987 41.5468 39.5801 42.4282 39.5801 43.5155V48.7655C39.5801 52.39 36.642 54.9999 33.0176 54.9999C29.3932 54.9999 26.4551 52.39 26.4551 48.7655V43.5155C26.4551 42.4282 27.3365 41.5468 28.4238 41.5468Z" fill="#E73C3E"/>
<path d="M24.8125 49.606C24.8125 51.2774 24.2217 52.5942 23.04 53.5566C21.8666 54.519 20.2305 55 18.1316 55C16.5978 55 15.2044 54.7664 13.9514 54.2988C13.3555 54.0767 13 53.4841 13 52.8478C13 51.6266 14.2606 50.8266 15.4198 51.2112C15.6584 51.2902 15.8847 51.3588 16.0988 51.4166C16.9499 51.6446 17.5863 51.6932 18.2887 51.6932C19.1316 51.6932 19.7762 51.5288 20.2224 51.1993C20.6769 50.8702 20.9041 50.3807 20.9041 49.7307C20.9041 49.3678 20.805 49.0469 20.6066 48.7683C20.4083 48.4815 20.1149 48.2072 19.7266 47.9453C19.3465 47.6835 18.7059 47.3311 17.5242 46.7569C16.4169 46.225 15.5864 45.7144 15.0328 45.2248C14.4791 44.7352 14.0371 44.1655 13.7065 43.5154C13.376 42.8655 13.2107 42.1057 13.2107 41.2363C13.2107 39.5986 13.752 38.3113 14.8345 37.3743C15.9252 36.4373 17.4292 35.9688 19.3463 35.9688C20.2883 35.9688 21.1849 36.0828 22.036 36.3107C22.4257 36.4141 22.823 36.5365 23.2279 36.678C24.076 36.9744 24.4572 37.9343 24.1191 38.7666C23.7707 39.6243 22.7933 40.0189 21.9156 39.7245C21.6117 39.6225 21.3337 39.5398 21.0816 39.4762C20.4536 39.3159 20.0099 39.2501 19.3985 39.2501C18.6713 39.2501 18.1135 39.4231 17.7251 39.7692C17.3367 40.1153 17.1426 40.5669 17.1426 41.124C17.1426 41.4701 17.221 41.7741 17.3781 42.0357C17.5351 42.289 17.783 42.538 18.1217 42.7828C18.4688 43.0192 19.1067 43.4352 20.3875 44.0599C22.0815 44.8872 23.2425 45.7187 23.8705 46.5544C24.4985 47.3816 24.8125 48.3988 24.8125 49.606Z" fill="#E73C3E"/>
</svg>
