<svg width="68" height="68" viewBox="0 0 68 68" fill="none" xmlns="http://www.w3.org/2000/svg">
<rect width="68" height="68" fill="#242424"/>
<path d="M16.3268 27.7641V31.3367C15.875 31.7296 15.351 32.0295 14.7844 32.2196C14.1806 32.4261 13.5468 32.5302 12.9091 32.5276C12.0326 32.5409 11.1671 32.3289 10.3948 31.9117C9.6661 31.5153 9.05989 30.9249 8.64257 30.2051C8.21212 29.4652 7.9901 28.6214 8.00034 27.7641C7.99023 26.9066 8.21223 26.0625 8.64257 25.3221C9.06027 24.6029 9.6664 24.0129 10.3948 23.6166C11.172 23.198 12.0426 22.986 12.9241 23.0007C13.5905 22.9938 14.2525 23.1095 14.8775 23.342C15.4488 23.556 15.9621 23.902 16.3761 24.352C16.218 24.5128 16.0097 24.6137 15.7862 24.6379C15.5627 24.662 15.3378 24.6078 15.1494 24.4844C14.4936 24.0747 13.7334 23.866 12.9615 23.8836C12.2498 23.8736 11.5473 24.0463 10.9203 24.3854C10.3252 24.7079 9.83026 25.1898 9.49031 25.7776C9.14188 26.3804 8.96247 27.0669 8.97118 27.7641C8.96191 28.4594 9.1414 29.144 9.49031 29.7442C9.83109 30.3285 10.3226 30.8092 10.9128 31.1353C11.5355 31.4793 12.2363 31.6548 12.9466 31.6447C13.9035 31.6447 14.7148 31.4034 15.3806 30.9211V28.7138C15.3806 28.5889 15.4051 28.4653 15.4527 28.3499C15.5003 28.2345 15.57 28.1298 15.6579 28.0415C15.7458 27.9533 15.8501 27.8834 15.9649 27.8358C16.0797 27.7882 16.2027 27.7639 16.3268 27.7641ZM19.5326 31.9052C18.8032 31.5088 18.196 30.9184 17.7772 30.1986C17.3517 29.4595 17.1335 28.6181 17.1457 27.7641C17.1336 26.9098 17.3518 26.0681 17.7772 25.3286C18.1957 24.6089 18.8031 24.0188 19.5326 23.6231C20.3019 23.2033 21.1654 22.989 22.0405 23.0007C22.9105 22.988 23.7693 23.2001 24.5345 23.6166C25.2612 24.014 25.8661 24.6038 26.2835 25.3221C26.7144 26.0622 26.9364 26.9065 26.9258 27.7641C26.9365 28.6214 26.7145 29.4654 26.2835 30.2051C25.8664 30.9239 25.2615 31.5141 24.5345 31.9117C23.7693 32.3282 22.9105 32.5403 22.0405 32.5276C21.1654 32.5393 20.3019 32.325 19.5326 31.9052ZM24.0357 31.1418C24.6204 30.8172 25.104 30.3356 25.4326 29.7507C25.7722 29.1449 25.9465 28.4596 25.9378 27.7641C25.9465 27.0687 25.7722 26.3833 25.4326 25.7776C25.1038 25.1926 24.6203 24.7107 24.0357 24.3854C23.4205 24.0559 22.7343 23.8836 22.0373 23.8836C21.3404 23.8836 20.6541 24.0559 20.0389 24.3854C19.4504 24.7098 18.9625 25.1916 18.6292 25.7776C18.2847 26.3817 18.1077 27.0678 18.1165 27.7641C18.1077 28.4605 18.2847 29.1466 18.6292 29.7507C18.9624 30.3365 19.4503 30.818 20.0389 31.1418C20.6539 31.472 21.3403 31.6447 22.0373 31.6447C22.7344 31.6447 23.4207 31.472 24.0357 31.1418ZM27.8024 23.0815C27.9317 23.0813 28.0597 23.1068 28.1792 23.1565C28.2986 23.2061 28.4072 23.279 28.4987 23.3709C28.5901 23.4628 28.6627 23.5719 28.7122 23.6921C28.7617 23.8122 28.7871 23.9409 28.7871 24.071V31.5908H33.1543C33.3814 31.5908 33.5992 31.6816 33.7598 31.8431C33.9204 32.0046 34.0106 32.2237 34.0106 32.4522H27.8024V23.0815ZM34.8455 23.0815H38.6368C39.6201 23.0815 40.4889 23.2799 41.2432 23.6769C41.9744 24.0505 42.5845 24.6261 43.002 25.3361C43.4258 26.0732 43.6419 26.9127 43.6268 27.7641C43.6419 28.6156 43.4258 29.4551 43.002 30.1921C42.5845 30.9017 41.9754 31.4771 41.2453 31.8514C40.4897 32.249 39.6208 32.4475 38.6389 32.4468H34.8476L34.8455 23.0815ZM35.8302 31.5876H38.5833C39.326 31.6045 40.0614 31.4366 40.724 31.0987C41.3148 30.7932 41.8075 30.3259 42.1457 29.7507C42.4902 29.147 42.6655 28.4603 42.6518 27.7641C42.6655 27.068 42.4902 26.3813 42.1457 25.7776C41.8075 25.201 41.3143 24.7322 40.723 24.4252C40.06 24.0883 39.3248 23.9207 38.5822 23.9375H35.8302V31.5908V31.5876ZM51.0917 32.4522H44.5099V23.0815H50.0427C50.2699 23.0815 50.4876 23.1722 50.6482 23.3338C50.8087 23.4953 50.8991 23.7144 50.8991 23.9428H45.4936V27.2688H49.4711C49.6935 27.2688 49.9066 27.3577 50.0638 27.5158C50.221 27.6739 50.3093 27.8883 50.3093 28.1119H45.4926V31.5908H50.2408C50.4665 31.5917 50.6826 31.682 50.8425 31.8423C51.0021 32.0026 51.0924 32.2199 51.0941 32.4468L51.0917 32.4522ZM59.9555 23.0847V32.4522C59.7026 32.4521 59.4531 32.3945 59.2253 32.2837C58.9975 32.173 58.7975 32.012 58.6403 31.8126L53.1609 24.8473V31.4573C53.1609 31.7197 53.0572 31.9714 52.8726 32.157C52.6883 32.3426 52.4381 32.4468 52.1772 32.4468V23.0815C52.4297 23.0816 52.6792 23.1391 52.907 23.2497C53.1345 23.3602 53.3342 23.521 53.4917 23.72L58.9858 30.681V24.0581C58.9858 23.9297 59.0109 23.8026 59.0597 23.6841C59.1085 23.5655 59.1805 23.4578 59.2704 23.3671C59.3608 23.2764 59.4681 23.2045 59.5859 23.1555C59.7039 23.1065 59.83 23.0813 59.9578 23.0815L59.9555 23.0847Z" fill="url(#paint0_linear_564_7663)"/>
<path d="M31.0167 40.8359C31.9306 40.5901 32.8803 40.5104 33.8218 40.6005C35.0336 40.6867 36.2372 40.8595 37.4242 41.1178C38.7022 41.3887 40.0168 41.7283 41.3659 42.1369C42.715 42.5454 43.9985 42.9635 45.2172 43.3912C46.4325 43.8205 47.5285 44.2334 48.5058 44.6301C49.4824 45.0268 50.2418 45.3613 50.7832 45.6336C50.9074 45.7015 51.0184 45.7918 51.1101 45.9001C51.1826 45.9933 51.1874 46.0621 51.1253 46.1043C50.9832 46.1533 50.8294 46.1587 50.6839 46.1199C50.3301 46.0496 49.9852 45.9394 49.6555 45.7913C48.7624 45.4346 47.7906 45.0734 46.7401 44.7078C45.6897 44.3422 44.593 43.9974 43.4516 43.6733C42.308 43.3491 41.1493 43.0531 39.9754 42.7852C38.8008 42.5173 37.6525 42.313 36.5303 42.1724C35.4661 42.0343 34.3956 41.9594 33.3231 41.9482C32.3906 41.9297 31.4588 42.0086 30.5422 42.1835C30.2808 42.2177 30.016 42.1745 29.7787 42.0592C29.5118 41.9531 29.2642 41.8031 29.0455 41.6151C28.94 41.8372 28.8248 42.1125 28.6703 42.4144C28.5158 42.7164 28.3703 43.0161 28.2027 43.3024C28.0351 43.5888 27.8716 43.8619 27.704 44.1017C27.5792 44.2921 27.4309 44.4659 27.2626 44.619C27.0564 44.7984 26.8177 44.937 26.5605 45.0275C26.3067 45.1201 26.046 45.1943 25.7818 45.2495C25.588 45.3007 25.3859 45.312 25.188 45.2829C25.0335 45.2495 24.9672 45.1718 25.0155 45.0475C25.4114 44.0854 25.8846 42.9354 26.435 41.5974C26.9853 40.2594 27.604 38.9006 28.291 37.5212C28.9676 36.1682 29.727 34.8588 30.5643 33.6004C31.2981 32.4536 32.2085 31.4315 33.2611 30.5721C33.5583 30.3211 33.9328 30.1827 34.3204 30.1813C34.6432 30.185 34.9619 30.2545 35.2564 30.3856C35.4909 30.4869 35.693 30.6522 35.8392 30.8629C35.9647 31.0494 35.9647 31.196 35.8392 31.3069C35.3626 31.751 34.8688 32.2586 34.3584 32.83C33.848 33.4013 33.3438 34.0229 32.8465 34.6949C32.3424 35.3724 31.8796 36.0797 31.4602 36.813C31.0436 37.5349 30.6746 38.284 30.3567 39.0553C31.1885 38.5506 32.092 38.0378 33.0693 37.5167C34.0466 36.9957 35.0384 36.4777 36.0468 35.9626C37.0545 35.449 38.0573 34.9473 39.0546 34.4574C40.0527 33.9674 40.9893 33.5116 41.8645 33.0897C43.5495 32.2461 45.2331 31.3625 46.9167 30.4389C48.5996 29.5153 50.3149 28.6635 52.0613 27.8835C52.2268 27.7991 52.3261 27.8835 52.3572 28.1188C52.3806 28.4366 52.3434 28.756 52.2489 29.0602C52.1247 29.4914 51.9509 29.9065 51.7302 30.2968C51.4978 30.7285 51.1867 31.112 50.8122 31.4268C50.1687 31.9456 49.4673 32.3873 48.7217 32.7434C47.8492 33.1874 46.8622 33.6478 45.76 34.1243C44.6579 34.6009 43.4743 35.0923 42.2087 35.5985C40.9403 36.1002 39.6568 36.6279 38.3573 37.1815C37.0579 37.7351 35.7771 38.3175 34.5149 38.9287C33.3162 39.5017 32.1485 40.1383 31.0167 40.8359ZM53.4007 38.8599C53.7959 38.5669 54.0145 38.4736 54.0628 38.578C54.1118 38.6823 54.0325 38.8799 53.8421 39.173C53.6055 39.5539 53.3421 39.9175 53.0545 40.2608C52.7048 40.6861 52.324 41.0846 51.9157 41.4531C51.5074 41.8233 51.0701 42.159 50.6067 42.4566C50.2211 42.72 49.7866 42.9013 49.3286 42.9894C48.9638 43.0159 48.5975 42.9463 48.2672 42.7874C47.8071 42.6038 47.3781 42.3507 46.9939 42.037C46.5974 41.706 46.2587 41.3105 45.9918 40.8669C45.7304 40.4695 45.6304 39.9866 45.7118 39.5171C45.7807 39.1247 45.9407 38.7542 46.1794 38.4359C46.4215 38.0992 46.7036 37.7942 47.0202 37.5278C47.3105 37.2801 47.6299 37.0691 47.9713 36.8995C48.2258 36.7608 48.5079 36.6804 48.7968 36.6642C49.0189 36.6725 49.2362 36.7262 49.4369 36.8218C49.6762 36.9239 49.8997 37.0608 50.099 37.2281C50.2846 37.3942 50.437 37.5947 50.5473 37.8187C50.657 38.0224 50.706 38.2537 50.6887 38.4847C50.6067 38.7885 50.4453 39.0645 50.2204 39.284C49.9376 39.598 49.6362 39.8946 49.3176 40.172C48.9003 40.5407 48.4623 40.8861 48.0071 41.2066C48.4644 41.3324 49.2003 41.1845 50.2142 40.7626C51.3522 40.2667 52.4234 39.6274 53.4007 38.8599ZM49.7218 38.2627C49.6376 38.2006 49.4459 38.2471 49.1459 38.4048C48.8293 38.5737 48.5327 38.7785 48.263 39.0153C47.9809 39.2566 47.734 39.5369 47.5299 39.8479C47.334 40.1499 47.285 40.4073 47.3912 40.616C47.6071 40.4877 47.8099 40.339 47.9982 40.172C48.2789 39.9426 48.5603 39.6917 48.841 39.4194C49.1224 39.1471 49.3555 38.9014 49.5411 38.6823C49.7218 38.4669 49.7838 38.3271 49.7218 38.2627ZM62.3794 38.6091C62.6704 38.3582 62.9111 38.3115 63.0967 38.4669C63.2822 38.6224 63.2312 38.871 62.9422 39.204C62.7277 39.4335 62.498 39.6485 62.2559 39.8479C61.8807 40.172 61.4076 40.6005 60.8365 41.1334C60.2661 41.6662 59.6109 42.2879 58.8722 42.9983C58.137 43.7117 57.3727 44.4858 56.5816 45.3206C55.7188 46.2303 54.9463 47.2222 54.2752 48.2823C53.6704 49.2547 53.1717 50.1383 52.7786 50.9331C52.3854 51.728 52.0689 52.394 51.8275 52.9313C51.5867 53.4641 51.375 53.7727 51.1874 53.8571C50.9591 53.9488 50.7156 53.9962 50.4701 53.9969C50.197 54.01 49.9232 53.9786 49.6597 53.9037C49.4486 53.8555 49.261 53.7336 49.13 53.5596C49.0265 53.402 49.0776 53.1777 49.2845 52.8936C49.4321 52.6626 49.7487 52.1298 50.2363 51.295C50.7232 50.4602 51.2998 49.4775 51.9661 48.3467C52.633 47.2173 53.3552 46.0096 54.1339 44.7234C54.9119 43.4371 55.6657 42.2301 56.394 41.1023C55.9788 41.5004 55.5733 41.8557 55.1774 42.168C54.7822 42.4803 54.4594 42.6371 54.2111 42.6387C54.0401 42.6297 53.8711 42.5922 53.7124 42.5276C53.4966 42.4523 53.2883 42.358 53.0896 42.2457C52.882 42.1239 52.6882 41.9794 52.5116 41.815C52.3509 41.6807 52.2365 41.4989 52.1847 41.2954C52.1971 40.9942 52.2771 40.6997 52.4185 40.434C52.6199 39.9811 52.8489 39.5413 53.1055 39.1175C53.3855 38.6468 53.6855 38.1872 54.0104 37.7365C54.2635 37.3632 54.5601 37.0212 54.8932 36.7175C54.9663 36.6637 55.0505 36.6273 55.1395 36.6111C55.2284 36.595 55.3202 36.5994 55.4071 36.6242C55.6423 36.6714 55.8671 36.7617 56.0692 36.8907C56.2871 37.0257 56.4858 37.1892 56.661 37.3769C56.8072 37.5103 56.9106 37.6852 56.9569 37.8786C57.0203 38.0251 56.9148 38.2849 56.6451 38.6623C56.3761 39.0398 56.0892 39.4105 55.7892 39.7724C55.4891 40.1343 55.2436 40.4518 55.056 40.7115C54.8684 40.9713 54.8884 41.0623 55.1181 40.978C55.3498 40.8753 55.5643 40.7383 55.7561 40.5717C56.0161 40.363 56.2975 40.1173 56.5989 39.8346C56.8989 39.5526 57.2058 39.2529 57.5197 38.9465C57.8328 38.6401 58.1218 38.3515 58.3915 38.1006C58.5315 37.9805 58.6625 37.8491 58.7818 37.7077C58.8418 37.621 58.9218 37.5507 59.0157 37.5034C59.1846 37.4858 59.355 37.507 59.5143 37.5655C59.6998 37.6295 59.8778 37.7144 60.044 37.8187C60.2054 37.918 60.3433 38.0513 60.4482 38.2094C60.542 38.339 60.5965 38.4933 60.6048 38.6534C60.6048 38.82 60.4813 39.062 60.2316 39.375C59.9826 39.688 59.6647 40.081 59.2805 40.5517C58.8963 41.0223 58.4487 41.5752 57.939 42.2124C57.3865 42.9116 56.8706 43.6394 56.394 44.3926C56.4554 44.3304 56.6892 44.0795 57.0955 43.6399C57.5017 43.2004 58.0004 42.6823 58.5922 42.0858C59.186 41.4908 59.8171 40.878 60.4944 40.2497C61.1724 39.6214 61.7986 39.0908 62.3794 38.6091Z" fill="white"/>
<defs>
<linearGradient id="paint0_linear_564_7663" x1="8.00034" y1="27.7641" x2="59.9578" y2="27.7641" gradientUnits="userSpaceOnUse">
<stop stop-color="#F8CD84"/>
<stop offset="0.34" stop-color="#DDA865"/>
<stop offset="0.59" stop-color="#EDD294"/>
<stop offset="0.77" stop-color="#D09150"/>
<stop offset="1" stop-color="#DDA865"/>
</linearGradient>
</defs>
</svg>
