<svg width="68" height="68" viewBox="0 0 68 68" fill="none" xmlns="http://www.w3.org/2000/svg">
<rect width="68" height="68" fill="white"/>
<path d="M34.884 50.5923C34.095 51.551 30.6807 55.4126 30.6807 55.4126H33.977C36.9227 55.4126 39.1193 54.6403 40.9348 52.4251C41.7239 51.4633 45.1334 47.6001 45.1334 47.6001H41.8418C38.8945 47.6001 36.6996 48.374 34.884 50.5923Z" fill="#009CDE"/>
<path d="M47.877 44.9917C47.4849 45.4726 45.7793 47.4011 45.7793 47.4011H47.4243C48.8987 47.4011 49.9954 47.0157 50.904 45.9081C51.2977 45.4382 53.0049 43.4956 53.0049 43.4956H51.3583C49.8838 43.4956 48.7872 43.8841 47.877 44.9917Z" fill="#009CDE"/>
<path d="M56.3553 32.522C54.8809 32.522 53.7842 32.9089 52.8741 34.0165C52.4819 34.4974 50.7764 36.4306 50.7764 36.4306H52.4214C53.8958 36.4306 54.9925 36.0436 55.9011 34.9329C56.2932 34.452 58.0003 32.522 58.0003 32.522H56.3553Z" fill="#0079C1"/>
<path d="M46.8982 36.5949C43.9796 36.5949 41.8118 37.3578 40.0138 39.5526C39.6025 40.0555 37.4937 42.4602 37.4937 42.4602C36.7333 43.2842 35.8168 43.5787 34.6245 43.5787H32.1809C31.6118 43.5787 31.0651 43.5975 30.5279 43.6351C30.5789 43.574 30.6347 43.5113 30.6873 43.4455C31.3249 42.6748 33.3062 40.4032 34.6388 38.8899C35.3067 38.1662 36.0957 37.8701 37.1047 37.8231C38.9649 37.8231 40.3549 37.3249 41.5089 35.9213C42.0078 35.3087 44.1836 32.8477 44.1836 32.8477H42.0764C40.2034 32.8477 38.8039 33.3411 37.6483 34.7542C37.3629 35.102 36.5404 36.0435 35.8805 36.7907C35.4119 37.2607 34.8508 37.433 34.1271 37.433H31.8095C28.1433 37.433 25.416 38.3949 23.1557 41.1536C22.177 42.3474 17.9338 47.1489 17.9338 47.1489H22.1674C21.7876 47.5213 21.4284 47.9135 21.0915 48.3238C19.8418 49.856 14.4062 56.0001 14.4062 56.0001H19.6521C24.3432 56.0001 27.8404 54.7719 30.7335 51.2424C31.5401 50.2586 35.7881 45.4194 35.7881 45.4194C36.4815 44.6643 37.304 44.3557 38.3528 44.3087H39.1163C42.0317 44.3087 44.2044 43.5427 46.0024 41.3479C46.7771 40.3985 50.1563 36.5761 50.1563 36.5761L46.8982 36.5949Z" fill="#0071BB"/>
<path d="M15.5809 47.5151C14.1097 47.5151 13.0098 47.9021 12.0996 49.0128C11.7091 49.4937 10.002 51.4269 10.002 51.4269H11.6485C13.123 51.4269 14.2228 51.0368 15.1282 49.9308C15.522 49.442 17.2291 47.5151 17.2291 47.5151H15.5809Z" fill="#0071BB"/>
<path d="M21.7753 37.4609C20.3008 37.4609 19.2057 37.8463 18.2956 38.9586C17.9019 39.438 16.1963 41.3695 16.1963 41.3695H17.8413C19.3157 41.3695 20.4124 40.981 21.3226 39.875C21.7147 39.3925 23.4219 37.4609 23.4219 37.4609H21.7753Z" fill="#009CDE"/>
<path d="M18.4781 17.154C18.4709 17.6414 18.4175 18.127 18.3187 18.6047C18.3374 17.9126 18.2743 17.2208 18.1306 16.5431C17.9935 15.8976 17.6062 14.8198 17.2937 14.3201C16.9222 15.0221 16.6477 15.7697 16.4776 16.5431C16.344 17.2297 16.28 17.9276 16.2863 18.6266C16.1724 17.9597 16.1259 17.2833 16.1477 16.6073C16.1812 15.9871 16.2816 15.3722 16.4473 14.7728C16.6558 14.0732 16.9418 13.3981 17.3001 12.7598C17.6699 13.3835 17.9616 14.0489 18.1688 14.7415C18.3843 15.5279 18.4884 16.3397 18.4781 17.154ZM17.3097 21.2851C17.0242 20.7449 16.8739 20.1455 16.8713 19.5368C16.873 18.9357 17.024 18.3442 17.3113 17.8136C17.5748 18.3281 17.7196 18.8935 17.7353 19.4694C17.7532 20.1029 17.6067 20.7304 17.3097 21.2929V21.2851ZM18.5721 14.754C18.2533 13.3441 17.4228 12.1896 17.3097 12C16.8054 12.7442 16.4109 13.5549 16.1381 14.4078C15.8041 15.5328 15.7038 16.7124 15.8432 17.8762C15.9511 18.6384 16.1512 19.3852 16.4394 20.1008C16.6714 20.6431 16.9638 21.1585 17.3113 21.6376C17.6731 21.1801 18.4972 19.8141 18.7459 18.0344C18.8877 17.0412 18.8957 16.1749 18.5641 14.7587L18.5721 14.754Z" fill="#0071BB"/>
<path d="M17.8665 21.9669H15.3671V23.6165V23.6087C15.5072 23.4707 15.6737 23.3611 15.8569 23.2863C16.0401 23.2114 16.2365 23.1728 16.435 23.1726C16.6334 23.1724 16.8299 23.2106 17.0133 23.285C17.1967 23.3594 17.3634 23.4686 17.5038 23.6063C17.6443 23.7441 17.7558 23.9077 17.8319 24.0877C17.908 24.2678 17.9473 24.4609 17.9476 24.6559C17.9478 24.8509 17.9089 25.044 17.8332 25.2242C17.7575 25.4045 17.6464 25.5683 17.5062 25.7063C17.504 25.7066 17.5019 25.7074 17.5002 25.7088C17.4985 25.7102 17.4973 25.7121 17.4967 25.7142H17.4871C17.1359 26.0574 16.7041 26.3103 16.2298 26.4505C15.7554 26.5906 15.2533 26.6136 14.7678 26.5175C14.2822 26.4214 13.8283 26.2091 13.4461 25.8995C13.064 25.5899 12.7654 25.1924 12.5768 24.7423C12.3882 24.2922 12.3155 23.8033 12.365 23.319C12.4145 22.8347 12.5847 22.3698 12.8606 21.9656C13.1365 21.5613 13.5096 21.2302 13.9468 21.0014C14.384 20.7727 14.8718 20.6534 15.3671 20.6541V16.7001C14.4771 16.6996 13.601 16.9167 12.8177 17.3318C12.0344 17.747 11.3686 18.3472 10.8801 19.0783C10.3917 19.8095 10.096 20.6485 10.0197 21.52C9.94347 22.3914 10.089 23.2678 10.4433 24.0701C10.7976 24.8725 11.3494 25.5756 12.0491 26.1161C12.7488 26.6566 13.5743 27.0175 14.4513 27.1663C15.3283 27.3151 16.2291 27.2471 17.0727 26.9684C17.9163 26.6898 18.676 26.2092 19.2835 25.5701V21.9669H17.8665Z" fill="#0071BB"/>
<path d="M19.9658 21.9703H22.0141V22.6236H21.0386V27.2449H19.9658V21.9703Z" fill="#0071BB"/>
<path d="M22.0381 27.2433H23.0885L23.1889 25.8428H23.6958L23.7963 27.2433H24.8467L24.2872 21.9702H22.5944L22.0381 27.2433ZM23.232 25.2616L23.4153 22.6235H23.4775L23.6624 25.2616H23.232Z" fill="#0071BB"/>
<path d="M26.3822 25.3968V26.39C26.3802 26.4129 26.3831 26.4359 26.3907 26.4577C26.3983 26.4794 26.4105 26.4993 26.4264 26.5161C26.4423 26.533 26.4617 26.5463 26.4831 26.5554C26.5046 26.5644 26.5278 26.5689 26.5512 26.5686C26.5741 26.5682 26.5968 26.5633 26.6178 26.5543C26.6388 26.5452 26.6578 26.5321 26.6737 26.5158C26.6896 26.4995 26.702 26.4803 26.7102 26.4592C26.7185 26.4382 26.7224 26.4157 26.7217 26.3931V25.1587C26.7217 25.002 26.6899 24.8109 26.293 24.8109H25.853V24.2375H26.3057C26.6134 24.2375 26.7217 24.1686 26.7217 23.8459V22.7963C26.7224 22.7738 26.7185 22.7514 26.7102 22.7305C26.7019 22.7095 26.6895 22.6904 26.6736 22.6742C26.6577 22.658 26.6387 22.6451 26.6177 22.6362C26.5967 22.6273 26.5741 22.6226 26.5512 22.6224C26.5279 22.6209 26.5046 22.6244 26.4828 22.6327C26.4611 22.641 26.4415 22.6539 26.4253 22.6705C26.4092 22.6871 26.397 22.707 26.3896 22.7287C26.3821 22.7504 26.3796 22.7735 26.3822 22.7963V23.6563H25.3047V22.9106C25.3047 22.5409 25.3493 21.9707 26.1017 21.9707H26.9911C27.7435 21.9707 27.7881 22.5425 27.7881 22.9106V23.7488C27.7881 24.3206 27.3817 24.4772 27.0597 24.4647V24.5164C27.7802 24.5007 27.7881 25.0443 27.7881 25.2323V26.2976C27.7881 26.6642 27.7435 27.2375 26.9911 27.2375H26.1017C25.3477 27.2375 25.3047 26.6657 25.3047 26.2976V25.3968H26.3822Z" fill="#0071BB"/>
<path d="M28.4541 21.9702H30.9391V27.2449H29.8648V22.6235H29.53L29.5269 27.2449H28.4541V21.9702Z" fill="#0071BB"/>
<path d="M31.5977 27.2422H32.6704V25.4501H33.2841C34.0365 25.4501 34.0811 24.8767 34.0811 24.5101V22.9106C34.0811 22.5409 34.0349 21.9707 33.2841 21.9707H31.5977V27.2422ZM32.6704 24.8689V22.6224H32.8091C32.9255 22.6224 33.0067 22.718 33.0067 22.8856V24.6088C33.0067 24.7749 32.9255 24.872 32.8091 24.872L32.6704 24.8689Z" fill="#0071BB"/>
<path d="M34.6006 26.3038C34.6006 26.6704 34.6452 27.2438 35.3976 27.2438H36.287C37.0378 27.2438 37.084 26.672 37.084 26.3038V22.9106C37.084 22.5409 37.0362 21.9707 36.287 21.9707H35.3976C34.6452 21.9707 34.6006 22.5425 34.6006 22.9106V26.3038ZM36.0129 26.39C36.0139 26.4128 36.0103 26.4356 36.0023 26.457C35.9942 26.4785 35.9819 26.4981 35.966 26.5147C35.9501 26.5314 35.9309 26.5447 35.9097 26.554C35.8885 26.5632 35.8655 26.5682 35.8423 26.5686C35.8197 26.5688 35.7972 26.5642 35.7765 26.5552C35.7558 26.5461 35.7373 26.5329 35.7223 26.5163C35.7072 26.4997 35.6959 26.4801 35.6891 26.4589C35.6823 26.4376 35.6802 26.4152 35.6829 26.3931V22.7963C35.6804 22.7743 35.6827 22.7521 35.6896 22.731C35.6965 22.71 35.7079 22.6906 35.7229 22.6742C35.738 22.6578 35.7564 22.6447 35.777 22.6357C35.7975 22.6268 35.8198 22.6223 35.8423 22.6224C35.8652 22.6226 35.8878 22.6273 35.9088 22.6362C35.9298 22.6451 35.9488 22.658 35.9647 22.6742C35.9806 22.6904 35.993 22.7095 36.0013 22.7305C36.0096 22.7514 36.0135 22.7738 36.0129 22.7963V26.39Z" fill="#0071BB"/>
<path d="M40.4899 21.9702H41.8847V27.2449H40.8103V23.9363H40.7737L40.2206 27.2449H39.3614L38.8115 23.9363H38.77V27.2449H37.6973V21.9702H39.0904L39.7902 25.6767L40.4899 21.9702Z" fill="#0071BB"/>
<path d="M42.8359 21.9648H43.9087V24.1831H44.245V21.9648H45.321V27.2426H44.245V24.7643H43.9087V27.2426H42.8359V21.9648Z" fill="#009CDE"/>
<path d="M45.9492 21.9648H48.1282V22.5476H47.0236V24.1831H48.0342V24.7643H47.0236V26.663H48.1728V27.2426H45.9492V21.9648Z" fill="#009CDE"/>
<path d="M51.17 26.3043C51.2848 26.3043 51.3709 26.204 51.3709 26.0379V23.1523C51.3709 22.9863 51.2848 22.8876 51.17 22.8876H51.0106V26.3043H51.17ZM49.9458 22.8876H49.7864C49.5856 22.8876 49.5856 23.099 49.5856 23.1523V26.0379C49.5856 26.0928 49.5856 26.3043 49.7864 26.3043H49.9458V22.8876ZM49.9458 26.8839H49.3322C48.5782 26.8839 48.5352 26.309 48.5352 25.9439V23.251C48.5352 22.8813 48.5782 22.3111 49.3322 22.3111H49.9458V21.9648H51.017V22.3079H51.6307C52.3847 22.3079 52.4277 22.8813 52.4277 23.2479V25.9424C52.4277 26.3105 52.3815 26.8823 51.6307 26.8823H51.017V27.2426H49.9458V26.8823V26.8839Z" fill="#009CDE"/>
<path d="M53.2977 22.5476H52.6553V21.9648H55.0176V22.5476H54.3736V27.2426H53.2977V22.5476Z" fill="#009CDE"/>
<path d="M56.7251 26.6621C56.8399 26.6621 56.9244 26.565 56.9244 26.3989V24.7634C56.9244 24.5974 56.8399 24.4971 56.7251 24.4971H56.5896V26.6621H56.7251ZM55.5137 21.9624H56.5896V23.9175H57.2017C57.9525 23.9175 57.9987 24.4893 57.9987 24.8574V26.2971C57.9987 26.6668 57.9509 27.2371 57.2017 27.2371H55.5137V21.964V21.9624Z" fill="#009CDE"/>
<path d="M38.6422 20.2919C38.5163 20.2941 38.3912 20.2712 38.2745 20.2246C38.1578 20.178 38.0519 20.1087 37.9631 20.0209C37.7097 19.7718 37.7129 19.4898 37.7129 19.0011C37.7129 18.5123 37.7129 18.2303 37.9631 17.9812C38.0519 17.8934 38.1578 17.8241 38.2745 17.7775C38.3912 17.731 38.5163 17.7081 38.6422 17.7102C38.8683 17.7011 39.0895 17.777 39.2607 17.9225C39.4319 18.068 39.5402 18.2722 39.5635 18.4935H39.1714C39.1528 18.3711 39.0895 18.2595 38.9933 18.1796C38.897 18.0997 38.7745 18.0571 38.6486 18.0596C38.5775 18.0582 38.5069 18.0715 38.4413 18.0984C38.3757 18.1254 38.3165 18.1655 38.2676 18.2162C38.1401 18.3509 38.1082 18.4966 38.1082 18.9995C38.1082 19.5024 38.1369 19.6559 38.2676 19.7906C38.3165 19.8413 38.3757 19.8814 38.4413 19.9084C38.5069 19.9354 38.5775 19.9486 38.6486 19.9473C38.7733 19.949 38.8945 19.9069 38.9904 19.8284C39.0863 19.75 39.1505 19.6405 39.1714 19.5196H39.5667C39.5426 19.7406 39.4341 19.9443 39.2631 20.0897C39.0921 20.2351 38.8713 20.3113 38.6454 20.3029L38.6422 20.2919Z" fill="#0071BB"/>
<path d="M40.5684 20.2693V17.7314H42.2229V18.0777H40.9605V18.8186H42.0348V19.1602H40.9605V19.9247H42.2229V20.2693H40.5684Z" fill="#0071BB"/>
<path d="M44.1128 18.0777V20.2693H43.7207V18.0777H43.0098V17.7314H44.8237V18.0777H44.1128Z" fill="#0071BB"/>
<path d="M46.7099 19.0756H46.1441V19.9231H46.7099C46.7688 19.9266 46.8277 19.9182 46.8831 19.8985C46.9386 19.8788 46.9893 19.8482 47.0322 19.8085C47.0751 19.7688 47.1093 19.7209 47.1327 19.6677C47.1561 19.6146 47.1681 19.5572 47.1681 19.4993C47.1681 19.4414 47.1561 19.3841 47.1327 19.3309C47.1093 19.2778 47.0751 19.2298 47.0322 19.1901C46.9893 19.1505 46.9386 19.1198 46.8831 19.1001C46.8277 19.0804 46.7688 19.072 46.7099 19.0756ZM46.7434 20.2693H45.752V17.7314H46.1441V18.7356H46.7434C46.8493 18.7309 46.955 18.7474 47.0542 18.7839C47.1534 18.8205 47.2441 18.8765 47.3207 18.9484C47.3973 19.0204 47.4582 19.1069 47.4999 19.2026C47.5415 19.2984 47.563 19.4014 47.563 19.5056C47.563 19.6097 47.5415 19.7128 47.4999 19.8086C47.4582 19.9043 47.3973 19.9908 47.3207 20.0627C47.2441 20.1347 47.1534 20.1907 47.0542 20.2272C46.955 20.2638 46.8493 20.2803 46.7434 20.2756V20.2693Z" fill="#0071BB"/>
<path d="M50.0908 18.3048L49.6923 19.4312H50.4893L50.0924 18.3048H50.0908ZM50.773 20.2693L50.5913 19.7602H49.5727L49.391 20.2693H48.9766L49.933 17.7314H50.2518L51.1938 20.2693H50.773Z" fill="#0071BB"/>
<path d="M51.9697 19.5197H52.3603C52.3802 19.6425 52.4445 19.7541 52.5414 19.8341C52.6383 19.9141 52.7613 19.9571 52.8879 19.9552C53.178 19.9552 53.3772 19.7985 53.3772 19.5416C53.3772 19.2847 53.2178 19.1343 52.9197 19.1343H52.5898V18.8116H52.9277C52.9819 18.818 53.0368 18.8126 53.0885 18.7956C53.1402 18.7785 53.1874 18.7504 53.2267 18.7132C53.2659 18.676 53.2962 18.6306 53.3154 18.5804C53.3345 18.5302 53.342 18.4765 53.3374 18.423C53.3374 18.1802 53.1636 18.0455 52.8911 18.0455C52.7648 18.0445 52.6424 18.0883 52.5463 18.1689C52.4503 18.2495 52.387 18.3614 52.3682 18.4841H51.9729C51.9985 18.2646 52.1078 18.0627 52.2787 17.9191C52.4496 17.7755 52.6696 17.7009 52.8942 17.7103C53.3724 17.7103 53.7327 17.9781 53.7327 18.398C53.7366 18.5156 53.7049 18.6316 53.6417 18.7315C53.5784 18.8313 53.4863 18.9105 53.3772 18.9588C53.4994 19.0033 53.6037 19.0851 53.6749 19.1923C53.7461 19.2995 53.7803 19.4263 53.7725 19.5541C53.7725 20.0037 53.3916 20.292 52.8799 20.292C52.6571 20.2996 52.4395 20.2244 52.2708 20.0812C52.102 19.938 51.9945 19.7374 51.9697 19.5197Z" fill="#0071BB"/>
<path d="M55.6699 20.2919C55.5442 20.2941 55.4194 20.2711 55.303 20.2246C55.1865 20.178 55.0809 20.1087 54.9925 20.0209C54.7374 19.7718 54.7422 19.4898 54.7422 19.0011C54.7422 18.5123 54.7422 18.2303 54.9925 17.9812C55.0809 17.8934 55.1865 17.8242 55.303 17.7776C55.4194 17.731 55.5442 17.7081 55.6699 17.7102C55.8962 17.701 56.1176 17.7769 56.2891 17.9224C56.4605 18.0679 56.5691 18.2721 56.5928 18.4935H56.1927C56.1759 18.3989 56.1329 18.3106 56.0685 18.2383C56.0041 18.166 55.9207 18.1124 55.8275 18.0835C55.7343 18.0546 55.6347 18.0514 55.5398 18.0742C55.4448 18.0971 55.358 18.1451 55.2889 18.2131C55.163 18.3478 55.1295 18.4935 55.1295 18.9964C55.1295 19.4992 55.1598 19.6528 55.2889 19.7875C55.338 19.838 55.3972 19.878 55.4627 19.905C55.5283 19.932 55.5988 19.9453 55.6699 19.9442C55.7948 19.9471 55.9166 19.9058 56.0132 19.8279C56.1097 19.75 56.1746 19.6406 56.1959 19.5196H56.5928C56.5687 19.7409 56.46 19.9449 56.2887 20.0903C56.1173 20.2357 55.8961 20.3117 55.6699 20.3029V20.2919Z" fill="#0071BB"/>
</svg>
