<svg width="68" height="68" viewBox="0 0 68 68" fill="none" xmlns="http://www.w3.org/2000/svg">
<g clip-path="url(#clip0_2411_12233)">
<rect width="68" height="68" fill="#64CE38"/>
<path d="M-3 41.3802V52.1555C-2.99387 52.5958 -2.88696 53.0289 -2.68746 53.4214C-2.48797 53.814 -2.2012 54.1557 -1.84916 54.4202C-1.49712 54.6847 -1.08916 54.8651 -0.65658 54.9475C-0.224004 55.0298 0.221691 55.012 0.646312 54.8954L45.9083 41.7601C47.3108 41.355 48.7915 41.301 50.2198 41.6029C51.6481 41.9048 52.9802 42.5533 54.0989 43.4913L67.0041 54.3075C67.4341 54.6694 67.9585 54.9008 68.5156 54.9745C69.0728 55.0482 69.6394 54.9611 70.1486 54.7235C70.6579 54.4859 71.0886 54.1076 71.3901 53.6333C71.6915 53.159 71.851 52.6085 71.8499 52.0465V41.3921C71.8518 40.1142 71.4293 38.8718 70.6487 37.8599L54.8912 17.3929C53.649 15.7794 51.8803 14.6527 49.893 14.209C47.9057 13.7654 45.8257 14.0328 44.0153 14.9648L-1.03883 38.1615C-1.62928 38.4666 -2.12441 38.9283 -2.47001 39.496C-2.81562 40.0637 -2.99838 40.7155 -2.9983 41.3802H-3Z" fill="#FFDD00"/>
</g>
<defs>
<clipPath id="clip0_2411_12233">
<rect width="68" height="68" fill="white"/>
</clipPath>
</defs>
</svg>
