<svg width="68" height="68" viewBox="0 0 68 68" fill="none" xmlns="http://www.w3.org/2000/svg">
<rect width="68" height="68" fill="#E60000"/>
<path d="M30.3435 42.2526C29.9964 42.2526 29.6635 42.1144 29.418 41.8683C29.1726 41.6223 29.0347 41.2886 29.0347 40.9407V34.2565C29.0347 33.9033 29.1746 33.5647 29.4238 33.3149C29.6729 33.0652 30.0108 32.9249 30.3631 32.9249C30.7155 32.9249 31.0534 33.0652 31.3025 33.3149C31.5516 33.5647 31.6916 33.9033 31.6916 34.2565V40.921C31.6916 41.2689 31.5537 41.6026 31.3082 41.8487C31.0628 42.0947 30.7299 42.2329 30.3828 42.2329M30.3828 28.3201C28.6784 28.3201 27.0439 28.9988 25.8387 30.2068C24.6335 31.4148 23.9565 33.0532 23.9565 34.7616V40.4094C23.9565 42.1177 24.6335 43.7562 25.8387 44.9642C27.0439 46.1722 28.6784 46.8508 30.3828 46.8508C32.0871 46.8508 33.7217 46.1722 34.9268 44.9642C36.132 43.7562 36.809 42.1177 36.809 40.4094V34.7813C36.809 33.0729 36.132 31.4345 34.9268 30.2265C33.7217 29.0185 32.0871 28.3398 30.3828 28.3398M44.5114 27.4805H45.8791C46.2002 27.5075 46.5235 27.4681 46.8288 27.3649C47.1342 27.2617 47.4151 27.0967 47.6543 26.8803C47.8936 26.6639 48.0859 26.4006 48.2196 26.1067C48.3532 25.8128 48.4253 25.4945 48.4313 25.1715C48.4253 24.8486 48.3532 24.5303 48.2196 24.2364C48.0859 23.9425 47.8936 23.6792 47.6543 23.4628C47.4151 23.2463 47.1342 23.0814 46.8288 22.9782C46.5235 22.875 46.2002 22.8356 45.8791 22.8626H44.4852C43.6458 22.8548 42.8131 23.0135 42.035 23.3295C41.2569 23.6455 40.5489 24.1127 39.9517 24.704C39.3544 25.2954 38.8797 25.9993 38.5549 26.7752C38.2301 27.5512 38.0615 28.3838 38.059 29.2253V44.3123C38.0414 44.6587 38.0944 45.0051 38.2146 45.3303C38.3348 45.6556 38.5197 45.9529 38.7581 46.2043C38.9965 46.4557 39.2834 46.6559 39.6014 46.7927C39.9194 46.9295 40.2618 47 40.6079 47C40.9539 47 41.2963 46.9295 41.6143 46.7927C41.9323 46.6559 42.2193 46.4557 42.4577 46.2043C42.6961 45.9529 42.881 45.6556 43.0012 45.3303C43.1214 45.0051 43.1743 44.6587 43.1568 44.3123V34.3549H44.9172C46.3241 34.3549 47.4693 33.4759 47.4693 32.0656C47.4642 31.7421 47.3928 31.4231 47.2595 31.1284C47.1263 30.8337 46.934 30.5696 46.6947 30.3525C46.4554 30.1354 46.1741 29.9699 45.8684 29.8663C45.5626 29.7626 45.2388 29.7231 44.9172 29.7501H43.1568V28.963C43.1374 28.774 43.1581 28.5831 43.2176 28.4028C43.2771 28.2225 43.374 28.0569 43.502 27.9168C43.63 27.7767 43.7861 27.6655 43.9601 27.5903C44.1341 27.515 44.322 27.4776 44.5114 27.4805ZM51.1537 41.2949C50.5971 41.2949 50.0531 41.4603 49.5903 41.7703C49.1276 42.0802 48.7669 42.5207 48.5539 43.0361C48.3409 43.5515 48.2852 44.1186 48.3938 44.6658C48.5023 45.2129 48.7704 45.7155 49.1639 46.11C49.5574 46.5044 50.0588 46.7731 50.6047 46.8819C51.1505 46.9907 51.7163 46.9349 52.2305 46.7214C52.7447 46.5079 53.1842 46.1464 53.4934 45.6825C53.8026 45.2187 53.9676 44.6734 53.9676 44.1155C53.9676 43.3674 53.6711 42.65 53.1434 42.121C52.6157 41.5921 51.9 41.2949 51.1537 41.2949ZM55.0801 27.4805H56.4478C56.7689 27.5075 57.0922 27.4681 57.3975 27.3649C57.7028 27.2617 57.9838 27.0967 58.223 26.8803C58.4622 26.6639 58.6546 26.4006 58.7883 26.1067C58.9219 25.8128 58.994 25.4945 59 25.1715C58.994 24.8486 58.9219 24.5303 58.7883 24.2364C58.6546 23.9425 58.4622 23.6792 58.223 23.4628C57.9838 23.2463 57.7028 23.0814 57.3975 22.9782C57.0922 22.875 56.7689 22.8356 56.4478 22.8626H55.0277C54.1883 22.8548 53.3556 23.0135 52.5775 23.3295C51.7994 23.6455 51.0914 24.1127 50.4942 24.704C49.8969 25.2954 49.4222 25.9993 49.0974 26.7752C48.7726 27.5512 48.604 28.3838 48.6015 29.2253V37.8905C48.6346 38.5457 48.9176 39.1631 49.392 39.6151C49.8664 40.0672 50.4959 40.3192 51.1504 40.3192C51.8049 40.3192 52.4344 40.0672 52.9088 39.6151C53.3832 39.1631 53.6662 38.5457 53.6993 37.8905V34.3549H55.4662C56.8732 34.3549 58.0184 33.4759 58.0184 32.0656C58.0132 31.7421 57.9418 31.4231 57.8086 31.1284C57.6753 30.8337 57.4831 30.5696 57.2438 30.3525C57.0044 30.1354 56.7232 29.9699 56.4174 29.8663C56.1116 29.7626 55.7879 29.7231 55.4662 29.7501H53.6993V28.963C53.6799 28.774 53.7006 28.5831 53.7601 28.4028C53.8196 28.2225 53.9165 28.0569 54.0445 27.9168C54.1725 27.7767 54.3286 27.6655 54.5026 27.5903C54.6766 27.515 54.8645 27.4776 55.0539 27.4805M20.1282 22.0098C19.4524 22.0098 18.8043 22.2785 18.3258 22.7568C17.8474 23.2351 17.5777 23.8842 17.576 24.5615V29.737H14.1273V24.5681C14.1273 23.887 13.8574 23.2338 13.3769 22.7522C12.8964 22.2706 12.2448 22 11.5653 22C10.8858 22 10.2341 22.2706 9.75367 22.7522C9.2732 23.2338 9.00327 23.887 9.00327 24.5681V44.3123C8.98576 44.6587 9.0387 45.0051 9.15889 45.3303C9.27907 45.6556 9.46399 45.9529 9.70241 46.2043C9.94082 46.4557 10.2277 46.6559 10.5457 46.7927C10.8637 46.9295 11.2062 47 11.5522 47C11.8982 47 12.2406 46.9295 12.5586 46.7927C12.8766 46.6559 13.1636 46.4557 13.402 46.2043C13.6404 45.9529 13.8253 45.6556 13.9455 45.3303C14.0657 45.0051 14.1186 44.6587 14.1011 44.3123V34.3549H16.2737C16.6209 34.3549 16.9538 34.4931 17.1992 34.7391C17.4447 34.9852 17.5826 35.3189 17.5826 35.6668V44.3123C17.5826 44.9908 17.8514 45.6415 18.3301 46.1212C18.8087 46.601 19.4579 46.8705 20.1347 46.8705C20.8116 46.8705 21.4608 46.601 21.9394 46.1212C22.418 45.6415 22.6869 44.9908 22.6869 44.3123V24.5615C22.6861 24.2256 22.6192 23.8931 22.4902 23.583C22.3611 23.273 22.1724 22.9914 21.9348 22.7545C21.6972 22.5175 21.4154 22.3298 21.1054 22.2021C20.7954 22.0743 20.4634 22.009 20.1282 22.0098Z" fill="white"/>
</svg>
