<svg width="68" height="68" viewBox="0 0 68 68" fill="none" xmlns="http://www.w3.org/2000/svg">
<rect width="68" height="68" fill="white"/>
<path fill-rule="evenodd" clip-rule="evenodd" d="M49.5702 36.5612L49.8734 30.6569L47.2127 29.3284L47.2811 28H58.9992L58.9349 29.2546L55.8249 30.6569L55.5175 36.6351L58.4077 38.1111L58.3241 39.7346H46.2441L46.3199 38.2586L49.5702 36.5612Z" fill="#FF7313"/>
<path fill-rule="evenodd" clip-rule="evenodd" d="M46.7964 28H58.9996L58.9154 29.6468L55.8021 31.0542L55.5094 36.7616L58.4027 38.2429L58.2998 40.2448H45.7344L45.8296 38.3849L49.0834 36.6814L49.3724 31.0405L46.7088 29.7072L46.7964 28ZM47.245 28.4677L47.1958 29.427L49.8593 30.7602L49.5412 36.9707L46.2874 38.6743L46.2309 39.7771H57.8512L57.9158 38.5201L55.0226 37.0388L55.3453 30.7466L58.4585 29.3393L58.5031 28.4677H47.245Z" fill="black"/>
<path fill-rule="evenodd" clip-rule="evenodd" d="M36.8604 36.7317H35.1199L35.2256 34.558L36.969 34.5577C37.8926 34.5208 38.3041 35.3498 38.07 35.8842C38.07 35.8842 37.9814 36.6949 36.8604 36.7317ZM37.0744 32.5122H35.3339L35.4399 30.4702H37.2706C37.9633 30.4519 38.4607 30.965 38.3098 31.6173C38.3097 31.6173 38.2655 32.5127 37.0744 32.5122ZM42.0601 28.005C42.0601 28.005 44.28 27.7655 44.7098 30.595C44.7098 30.595 44.8872 32.5461 42.9142 33.69C45.0648 34.3143 44.6739 36.9304 44.6739 36.9304C44.0243 39.9028 40.9973 39.7328 40.9973 39.7328H26.3467L26.4362 38.259L29.167 36.5666L29.4275 30.5912L26.8675 29.3414L26.957 28.0147L42.0601 28.005Z" fill="#FF7313"/>
<path fill-rule="evenodd" clip-rule="evenodd" d="M42.2816 28.4708L42.2813 28.4708L42.2808 28.4708L42.269 28.4721L26.9406 28.4817L26.8744 29.4386L29.5045 30.6913L29.2241 36.9655L26.4124 38.6655L26.3433 39.776H41.1694L41.1757 39.7763L41.1758 39.7763L41.176 39.7763L41.1764 39.7764C41.1773 39.7764 41.1789 39.7765 41.1812 39.7766C41.1839 39.7767 41.1875 39.7768 41.192 39.7769C41.1953 39.777 41.1991 39.7771 41.2034 39.7772C41.2236 39.7777 41.2545 39.778 41.2946 39.7775C41.3749 39.7764 41.492 39.7718 41.6353 39.7572C41.9226 39.7281 42.3107 39.6599 42.7167 39.5044C43.519 39.197 44.3952 38.5496 44.7106 37.1554C44.7111 37.1515 44.7119 37.146 44.7127 37.1389C44.7149 37.1218 44.7178 37.0958 44.7209 37.0619C44.7271 36.994 44.7338 36.8951 44.7353 36.7739C44.7383 36.5307 44.7202 36.2028 44.6378 35.859C44.4739 35.1748 44.0647 34.4509 43.0687 34.1688L42.5308 34.0164L43.0158 33.7422C43.9715 33.2016 44.3999 32.4763 44.5929 31.8891C44.69 31.5938 44.7278 31.3321 44.7413 31.1454C44.7481 31.0523 44.7488 30.9782 44.7479 30.9287C44.7474 30.9039 44.7465 30.8853 44.7459 30.8735C44.7457 30.8699 44.7455 30.867 44.7453 30.8647C44.534 29.5222 43.8999 28.9427 43.3502 28.6839C43.0679 28.5509 42.7968 28.4976 42.596 28.4777C42.4959 28.4678 42.4144 28.4664 42.3591 28.4673C42.3315 28.4677 42.3105 28.4688 42.2973 28.4696C42.2906 28.47 42.2859 28.4704 42.2833 28.4706L42.2816 28.4708ZM44.9821 30.8381C45.2193 30.8168 45.2193 30.817 45.2193 30.8171L45.2194 30.8182L45.2196 30.8202C45.2198 30.8218 45.2199 30.8239 45.2201 30.8264C45.2205 30.8315 45.221 30.8385 45.2215 30.8472C45.2225 30.8647 45.2236 30.8892 45.2242 30.9203C45.2253 30.9823 45.2244 31.0702 45.2165 31.1786C45.2008 31.395 45.1574 31.6946 45.0464 32.0324C44.8533 32.6197 44.4566 33.3185 43.6578 33.8897C44.5465 34.3076 44.939 35.0736 45.1016 35.7522C45.1953 36.1432 45.2149 36.5109 45.2116 36.7795C45.21 36.9143 45.2025 37.0254 45.1954 37.1036C45.1918 37.1427 45.1883 37.1737 45.1856 37.1953C45.1843 37.2062 45.1831 37.2147 45.1823 37.2208C45.1819 37.2238 45.1815 37.2262 45.1813 37.228L45.1809 37.2302L45.1808 37.231L45.1808 37.2312C45.1808 37.2313 45.1807 37.2315 44.9452 37.1968L45.1807 37.2315L45.1796 37.2392L45.1778 37.2469C44.8232 38.8299 43.8101 39.5869 42.89 39.9394C42.4339 40.1141 42.0017 40.1897 41.6842 40.2218C41.5251 40.2379 41.3937 40.2433 41.3011 40.2445C41.2548 40.2451 41.2181 40.2447 41.1924 40.2442C41.1795 40.2439 41.1694 40.2435 41.1622 40.2432C41.1603 40.2432 41.1586 40.2431 41.1571 40.243H25.8369L25.952 38.3951L28.7592 36.6978L29.0149 30.9773L26.3774 29.7211L26.4954 28.0149L42.2453 28.005C42.2509 28.0046 42.258 28.0041 42.2665 28.0035C42.2869 28.0022 42.3155 28.0009 42.3512 28.0003C42.4225 27.9991 42.5228 28.0011 42.6438 28.013C42.885 28.0369 43.2126 28.1009 43.5565 28.2628C44.2581 28.5932 44.9854 29.3115 45.2176 30.8028L45.2187 30.8098L45.2193 30.8168L44.9821 30.8381ZM38.0143 31.1951C37.8689 31.0419 37.6317 30.9386 37.3349 30.9463L37.3318 30.9463H35.6713L35.5872 32.5288H37.1269C37.6706 32.529 37.9129 32.3348 38.0284 32.1772C38.0903 32.0926 38.1239 32.0073 38.1417 31.9431C38.1505 31.9113 38.1553 31.8856 38.1577 31.8692C38.1584 31.8642 38.159 31.8601 38.1593 31.857C38.1596 31.855 38.1597 31.8534 38.1598 31.8522C38.16 31.851 38.16 31.8502 38.16 31.85C38.16 31.8499 38.16 31.8499 38.16 31.8499L38.1601 31.8497L38.1602 31.8477C38.1602 31.8471 38.1665 31.8341 38.1793 31.8143L38.1658 31.8113C38.2259 31.5578 38.1567 31.3452 38.0143 31.1951ZM38.6337 31.8999C38.7218 31.5052 38.6123 31.1397 38.3631 30.877C38.1139 30.6144 37.7402 30.4694 37.3256 30.4793H35.2191L35.0853 32.9958H37.1267C37.1267 32.9958 37.1268 32.9958 37.1268 32.9958C37.8085 32.9961 38.2016 32.7413 38.4153 32.4497C38.5178 32.3097 38.5723 32.1703 38.6013 32.066C38.6159 32.0135 38.6243 31.969 38.6291 31.9363C38.6313 31.9218 38.6327 31.9096 38.6337 31.8999ZM37.9331 36.0526C38.099 35.6831 37.8119 35.0182 37.0278 35.0487L37.0231 35.0488L35.4516 35.0491L35.3661 36.7638H36.9026C37.4119 36.7466 37.6543 36.5631 37.7742 36.4137C37.8376 36.3347 37.8735 36.2567 37.8932 36.1994C37.9031 36.171 37.9087 36.1483 37.9117 36.1341C37.9132 36.127 37.9141 36.1221 37.9144 36.1199C37.9145 36.1195 37.9145 36.1193 37.9145 36.1191L37.9183 36.0855L37.9331 36.0526ZM38.3817 36.2114C38.6688 35.5112 38.1114 34.542 37.0138 34.5818L34.9979 34.5821L34.8659 37.2308H36.9105L36.9144 37.2307C37.5558 37.2102 37.9348 36.9688 38.1485 36.7025C38.252 36.5736 38.3111 36.4458 38.3444 36.3493C38.3611 36.3009 38.3716 36.2598 38.3781 36.2294C38.3795 36.2229 38.3807 36.2169 38.3817 36.2114Z" fill="black"/>
<path fill-rule="evenodd" clip-rule="evenodd" d="M17.7013 29.6064H18.0423C18.8265 29.6064 19.4289 30.2672 19.3878 31.0824L19.1186 36.4252C19.0774 37.2403 18.4085 37.9012 17.6241 37.9012H17.2832C16.499 37.9012 15.8966 37.2403 15.9376 36.4252L16.207 31.0824C16.248 30.2672 16.9171 29.6064 17.7013 29.6064ZM14.8177 28H21.1194C23.8646 28 25.9732 30.313 25.8292 33.1662L25.7585 34.5684C25.6146 37.4219 23.2729 39.7346 20.5281 39.7346H14.2262C11.4815 39.7346 9.37281 37.4219 9.51671 34.5684L9.58716 33.1662C9.7312 30.313 12.0729 28 14.8177 28Z" fill="#FF7313"/>
<path fill-rule="evenodd" clip-rule="evenodd" d="M9.55782 33.4306C9.55782 33.4307 9.55783 33.4306 9.55782 33.4306L9.48504 34.8379C9.34288 37.5759 11.421 39.7771 14.1122 39.7771H20.6233C23.3251 39.7771 25.6461 37.5604 25.7887 34.8142L25.8618 33.4069C26.004 30.6691 23.9259 28.4677 21.2344 28.4677H14.7233C12.0216 28.4677 9.70057 30.6847 9.55782 33.4306ZM9.08027 33.4069C9.2352 30.4258 11.7532 28 14.7233 28H21.2344C24.2154 28 26.4946 30.4413 26.3393 33.4306L26.2663 34.8379C26.1115 37.8193 23.5935 40.2448 20.6233 40.2448H14.1122C11.1315 40.2448 8.85229 37.8038 9.00748 34.8142C9.00748 34.8143 9.00748 34.8142 9.00748 34.8142L9.08027 33.4069ZM17.7027 30.0799C17.0266 30.0799 16.4338 30.6387 16.3975 31.3392L16.1191 36.7013C16.1191 36.7014 16.1191 36.7013 16.1191 36.7013C16.0834 37.3937 16.6053 37.937 17.2707 37.937H17.6229C18.2991 37.937 18.8918 37.3782 18.9283 36.6777C18.9283 36.6777 18.9283 36.6777 18.9283 36.6777L19.2064 31.3155C19.2423 30.6231 18.7204 30.0799 18.055 30.0799H17.7027ZM15.92 31.3155C15.9684 30.3798 16.7583 29.6122 17.7027 29.6122H18.055C19.01 29.6122 19.7329 30.3954 19.684 31.3392L19.4058 36.7014C19.3571 37.637 18.5675 38.4047 17.6229 38.4047H17.2707C16.3157 38.4047 15.5928 37.6215 15.6416 36.6777L15.92 31.3155Z" fill="black"/>
<path d="M55.9385 35.6531C55.9385 35.3714 56.0527 35.1159 56.2373 34.9315C56.4218 34.7469 56.6771 34.6326 56.9587 34.6326C57.2407 34.6326 57.4957 34.7469 57.6802 34.9315C57.865 35.1158 57.9793 35.3713 57.9793 35.6531C57.9793 35.9347 57.8651 36.1899 57.6802 36.3746H57.68C57.4952 36.5592 57.2401 36.6734 56.9587 36.6734C56.6779 36.6734 56.4226 36.5592 56.2378 36.3746C56.2378 36.3743 56.2375 36.3743 56.2373 36.374C56.0528 36.1892 55.9385 35.9342 55.9385 35.6531ZM56.9596 35.7743H56.7332V36.1614H56.5439V35.1366L57.0706 35.1363C57.2211 35.1404 57.3312 35.2187 57.3843 35.3179C57.4073 35.3609 57.4199 35.4079 57.4204 35.4546V35.4551C57.4207 35.5027 57.4091 35.551 57.3843 35.5953C57.348 35.6598 57.2838 35.7146 57.1895 35.7463L57.4585 36.1796H57.2108L56.9596 35.7743ZM56.7331 35.5851C56.8455 35.5851 56.9419 35.5779 57.0682 35.5779H57.0851L57.0856 35.5787C57.1573 35.5657 57.2004 35.5371 57.2196 35.503C57.2277 35.489 57.2314 35.4726 57.2312 35.4566C57.2312 35.4395 57.2265 35.4219 57.2183 35.4063C57.1946 35.3625 57.1414 35.3275 57.0656 35.3255H56.7331V35.5851ZM56.3773 35.0712C56.2286 35.2201 56.1367 35.426 56.1367 35.6531C56.1367 35.8803 56.2283 36.0862 56.377 36.2345L56.3773 36.2348C56.5257 36.3834 56.7316 36.4753 56.9587 36.4753C57.1862 36.4753 57.3918 36.3832 57.5405 36.2348V36.2345C57.6892 36.0856 57.7813 35.8803 57.7813 35.6531C57.7813 35.426 57.6892 35.2201 57.5405 35.0715C57.3915 34.9226 57.1859 34.8305 56.9587 34.8305C56.7319 34.8305 56.5263 34.9226 56.3773 35.0712Z" fill="black"/>
</svg>
