<svg width="68" height="68" viewBox="0 0 68 68" fill="none" xmlns="http://www.w3.org/2000/svg">
<rect width="68" height="68" fill="#0F5DE4"/>
<path d="M19.7754 36.8971L26.4825 35.96C26.6775 35.9786 26.8733 35.934 27.0416 35.8326C27.21 35.7313 27.3423 35.5785 27.4194 35.3961C27.4966 35.2138 27.5146 35.0113 27.4709 34.818C27.4272 34.6246 27.3241 34.4502 27.1764 34.32C26.2854 33.0099 25.802 31.4595 25.7887 29.8686C25.7887 25.4171 29.4892 21.9029 34.1148 21.9029C38.7404 21.9029 42.2096 25.4171 42.2096 29.8686C42.2096 34.0857 39.203 37.3657 35.2712 38.0686L22.3195 39.9429C21.3943 39.9429 21.1631 41.1143 21.8569 41.5829L34.1148 54L46.3727 41.8171C47.869 40.2706 49.0481 38.4392 49.8421 36.4286C50.636 34.418 51.029 32.2681 50.9983 30.1029C50.9983 20.7314 43.5973 13 34.1148 13C24.6323 13 17 20.7314 17 29.8686C17 32.2114 17.2313 34.0857 17.9251 35.96C18.0771 36.3104 18.3453 36.5958 18.6832 36.767C19.0211 36.9381 19.4075 36.9842 19.7754 36.8971Z" fill="white"/>
</svg>
