<svg width="68" height="68" viewBox="0 0 68 68" fill="none" xmlns="http://www.w3.org/2000/svg">
<g clip-path="url(#clip0_468_9104)">
<rect width="68" height="68" fill="#0069FF"/>
<g clip-path="url(#clip1_468_9104)">
<path d="M16.7628 29C14.1403 29 12 31.2468 12 34C12 36.7532 14.1403 39 16.7628 39C19.4156 39 21.5257 36.7532 21.5257 34C21.5257 31.2468 19.4156 29 16.7628 29ZM16.7628 36.6899C15.346 36.6899 14.2006 35.4873 14.2006 34C14.2006 32.5127 15.346 31.3101 16.7628 31.3101C18.1796 31.3101 19.3251 32.5127 19.3251 34C19.3251 35.4873 18.1796 36.6899 16.7628 36.6899ZM38.7382 29C35.0304 29 32.0461 31.2468 32.0461 34C32.0461 36.7532 35.0304 39 38.7382 39C42.446 39 45.4303 36.7532 45.4303 34C45.4303 31.2468 42.4158 29 38.7382 29ZM38.7382 36.6899C36.1759 36.6899 34.2768 35.2658 34.2768 34.0316C34.2768 32.7975 36.1759 31.3734 38.7382 31.3734C41.3005 31.3734 43.1996 32.7975 43.1996 34.0316C43.1996 35.2658 41.2703 36.6899 38.7382 36.6899ZM54.6848 29.2215C54.0816 29.2215 53.5692 29.7595 53.5692 30.3924V34.3165L47.5404 29.2848C47.3294 29.0949 47.0279 29.2532 47.0279 29.538V37.6076C47.0279 38.2405 47.5404 38.7785 48.1433 38.7785C48.7462 38.7785 49.2586 38.2405 49.2586 37.6076V33.7152L55.2876 38.7468C55.4984 38.9367 55.8 38.7785 55.8 38.4937V30.3924C55.8 29.7595 55.2876 29.2215 54.6848 29.2215ZM30.2977 36.4684H26.4995L31.3226 29.7595C31.4734 29.538 31.3226 29.2215 31.0815 29.2215H24.088C23.4851 29.2215 22.9726 29.7595 22.9726 30.3924C22.9726 31.0253 23.4851 31.5633 24.088 31.5633H27.2531L22.3999 38.2722C22.2491 38.4937 22.3999 38.8101 22.6712 38.8101H30.2977C30.9006 38.8101 31.4131 38.2722 31.4131 37.6392C31.4131 37.0063 30.9006 36.4684 30.2977 36.4684Z" fill="white"/>
</g>
</g>
<defs>
<clipPath id="clip0_468_9104">
<rect width="68" height="68" fill="white"/>
</clipPath>
<clipPath id="clip1_468_9104">
<rect width="44" height="10" fill="white" transform="translate(12 29)"/>
</clipPath>
</defs>
</svg>
