<svg width="68" height="68" viewBox="0 0 68 68" fill="none" xmlns="http://www.w3.org/2000/svg">
<rect width="68" height="68" fill="white"/>
<path d="M51.5703 23.3053C47.9859 23.3053 45.5766 24.7744 43.6081 26.7135L36.5273 33.9999L43.6081 41.2864C45.5766 43.2255 47.9859 44.6946 51.5703 44.6946C57.4759 44.6946 62.0005 39.9055 62.0005 33.9999C62.0005 28.0944 57.5053 23.3053 51.5703 23.3053ZM51.5703 27.8887C54.8316 27.8887 57.4171 30.5918 57.4171 33.9999C57.4171 37.4375 54.861 40.1112 51.5703 40.1112C49.69 40.1112 48.3384 39.5235 46.84 38.0251L42.7561 33.9706L46.8106 29.9454C48.3384 28.4763 49.69 27.8887 51.5703 27.8887Z" fill="#004819"/>
<path d="M16.4302 23.3053C10.4953 23.3053 6 28.0944 6 33.9999C6 39.9055 10.4953 44.6946 16.4008 44.6946C19.9853 44.6946 22.3945 43.2255 24.363 41.2864L31.4438 33.9999L24.3924 26.7135C22.4239 24.7744 19.9853 23.3053 16.4302 23.3053ZM16.4302 27.8887C18.3106 27.8887 19.6621 28.4763 21.1899 29.9748L25.2738 34.0293L21.1899 38.0251C19.6621 39.5529 18.3106 40.1112 16.4302 40.1112C13.1689 40.1112 10.5834 37.4375 10.5834 33.9999C10.5834 30.5624 13.1395 27.8887 16.4302 27.8887Z" fill="#94BB1E"/>
<path d="M33.9993 36.5267C33.3823 36.5267 26.7129 43.6075 26.7129 43.6075C24.7737 45.576 23.3047 47.9852 23.3047 51.5697C23.3047 57.4752 28.0938 61.9705 33.9993 61.9705C39.9049 61.9705 44.6939 57.4752 44.6939 51.5697C44.6939 47.9852 43.2249 45.576 41.2858 43.6075L33.9993 36.5267ZM33.9993 42.7554L38.0245 46.81C39.5229 48.3672 40.1105 49.6893 40.1105 51.5697C40.1105 54.8897 37.4663 57.4165 33.9993 57.4165C30.503 57.4165 27.8881 54.9191 27.8881 51.5697C27.8881 49.6893 28.4757 48.3378 29.9448 46.81L33.9993 42.7554Z" fill="#41884C"/>
<path d="M33.9993 6C28.0938 6 23.3047 10.4953 23.3047 16.4008C23.3047 19.9853 24.7737 22.3945 26.7129 24.363L33.9993 31.4438L41.2858 24.363C43.2249 22.3945 44.6939 19.9853 44.6939 16.4008C44.6939 10.4953 39.9049 6 33.9993 6ZM33.9993 10.5834C37.4369 10.5834 40.1105 13.1395 40.1105 16.4302C40.1105 18.3106 39.5229 19.6621 38.0245 21.1899L33.9993 25.2444L29.9741 21.1899C28.4757 19.6621 27.8881 18.3106 27.8881 16.4302C27.8881 13.0808 30.503 10.5834 33.9993 10.5834Z" fill="#B5D054"/>
</svg>
