<svg width="68" height="68" viewBox="0 0 68 68" fill="none" xmlns="http://www.w3.org/2000/svg">
<rect width="68" height="68" fill="black"/>
<path d="M47.9307 26.1868C47.8317 25.9294 47.604 25.672 47.2475 25.474L27.7921 14.2462C26.8119 13.672 26 14.1373 26 15.276V37.7512C26 38.8898 26.8119 39.3552 27.7921 38.7908L47.2574 27.5532C47.604 27.3453 47.8317 27.0977 47.9406 26.8403C47.9802 26.7314 48 26.6225 48 26.5136C48 26.4047 47.9802 26.2958 47.9307 26.1868Z" fill="#FACC6D"/>
<path d="M14.058 54.0293C14.0989 54.0703 14.1471 54.0896 14.2049 54.0896H15.0408C15.1034 54.0896 15.1564 54.0703 15.1974 54.0342C15.2383 53.9956 15.2576 53.945 15.2576 53.8824V51.8469H16.5367C17.2377 51.8469 17.7893 51.6855 18.1892 51.3652C18.589 51.0424 18.789 50.5702 18.789 49.9439C18.789 49.3128 18.589 48.8311 18.1892 48.4986C17.7917 48.1662 17.2401 48 16.5391 48H14.2073C14.1423 48 14.0917 48.0193 14.0556 48.0602C14.017 48.1012 14.0002 48.1542 14.0002 48.2168V53.88C13.9978 53.9402 14.0195 53.9884 14.058 54.0293ZM15.2431 48.9756H16.4957C16.845 48.9756 17.1028 49.0599 17.2738 49.2285C17.4448 49.3971 17.5315 49.6308 17.5315 49.9343C17.5315 50.2426 17.4424 50.4763 17.2666 50.6353C17.0907 50.7943 16.833 50.8738 16.4957 50.8738H15.2431V48.9756Z" fill="#FACC6D"/>
<path d="M20.1582 53.88C20.1582 53.9378 20.1775 53.9884 20.2184 54.0269C20.2594 54.0679 20.3076 54.0872 20.3654 54.0872H21.1651C21.2301 54.0872 21.2807 54.0679 21.3217 54.0269C21.3626 53.986 21.3819 53.9378 21.3819 53.88V51.7915H22.5743L23.6872 53.8535C23.7281 53.9234 23.7739 53.9788 23.8269 54.0221C23.8799 54.0655 23.9521 54.0872 24.0437 54.0872H24.8434C24.8892 54.0872 24.9325 54.0703 24.9687 54.0342C25.0072 54.0004 25.0265 53.9547 25.0265 53.9041C25.0265 53.8752 25.0168 53.8439 25 53.8077L23.7377 51.5892C24.1039 51.4615 24.3881 51.2544 24.5905 50.9677C24.7928 50.681 24.894 50.3245 24.894 49.903C24.894 49.2936 24.6916 48.8238 24.2894 48.4938C23.8919 48.1662 23.3331 48 22.62 48H20.3678C20.3027 48 20.2521 48.0193 20.216 48.0602C20.1775 48.1012 20.1606 48.1542 20.1606 48.2168L20.1582 53.88ZM21.3843 48.9756H22.5935C22.9404 48.9756 23.203 49.0551 23.3764 49.2141C23.5499 49.373 23.6366 49.6019 23.6366 49.8958C23.6366 50.192 23.5499 50.4161 23.3764 50.5702C23.203 50.7244 22.9404 50.8015 22.5935 50.8015H21.3843V48.9756Z" fill="#FACC6D"/>
<path d="M30.6885 53.0803H27.7666V51.5049H30.4284C30.491 51.5049 30.544 51.4856 30.5849 51.4495C30.6259 51.4109 30.6452 51.3603 30.6452 51.2977V50.7485C30.6452 50.6859 30.6259 50.6329 30.5849 50.5919C30.544 50.551 30.491 50.5317 30.4284 50.5317H27.7666V49.0093H30.6211C30.6837 49.0093 30.7367 48.99 30.7777 48.9539C30.8186 48.9154 30.8379 48.8648 30.8379 48.8021V48.2168C30.8379 48.1542 30.8186 48.1012 30.7777 48.0602C30.7343 48.0193 30.6813 48 30.6187 48H26.7814C26.7163 48 26.6658 48.0193 26.6296 48.0602C26.5911 48.1012 26.5742 48.1542 26.5742 48.2168V53.88C26.5742 53.9378 26.5935 53.9884 26.6344 54.0269C26.6754 54.0679 26.7236 54.0872 26.7814 54.0872H30.6885C30.7512 54.0872 30.8042 54.0679 30.8451 54.0317C30.8861 53.9932 30.9053 53.9426 30.9053 53.88V53.2874C30.9053 53.2248 30.8836 53.1718 30.8451 53.1357C30.8042 53.0995 30.7512 53.0803 30.6885 53.0803Z" fill="#FACC6D"/>
<path d="M38.0034 48H37.3073C37.1965 48 37.1097 48.0554 37.0471 48.1662L35.3682 51.2808L33.6892 48.1662C33.6242 48.0554 33.5374 48 33.4266 48H32.7208C32.6558 48 32.6052 48.0193 32.5691 48.0602C32.5305 48.1012 32.5137 48.1542 32.5137 48.2168V53.88C32.5137 53.9378 32.5329 53.9884 32.5739 54.0269C32.6148 54.0679 32.663 54.0872 32.7208 54.0872H33.47C33.5326 54.0872 33.5832 54.0679 33.6217 54.0269C33.6603 53.986 33.6771 53.9378 33.6771 53.88V50.1391L34.8864 52.4347C34.9611 52.5624 35.0598 52.625 35.1827 52.625H35.5488C35.6765 52.625 35.7728 52.5624 35.8355 52.4347L37.0447 50.1391V53.88C37.0447 53.9378 37.064 53.9884 37.1049 54.0269C37.1459 54.0679 37.1941 54.0872 37.2519 54.0872H38.001C38.0637 54.0872 38.1166 54.0679 38.1576 54.0317C38.1985 53.9932 38.2178 53.9426 38.2178 53.88V48.2168C38.2178 48.1542 38.1961 48.1012 38.1576 48.0602C38.1191 48.0193 38.0661 48 38.0034 48Z" fill="#FACC6D"/>
<path d="M41.1426 48H40.3068C40.249 48 40.1984 48.0193 40.1598 48.0554C40.1189 48.0939 40.0996 48.1445 40.0996 48.2072V53.88C40.0996 53.9378 40.1189 53.9884 40.1598 54.0269C40.2008 54.0679 40.249 54.0872 40.3068 54.0872H41.1426C41.2053 54.0872 41.2583 54.0679 41.2944 54.0269C41.3329 53.986 41.3522 53.9378 41.3522 53.88V48.2072C41.3522 48.1445 41.3329 48.0915 41.2944 48.0554C41.2583 48.0193 41.2053 48 41.1426 48Z" fill="#FACC6D"/>
<path d="M47.3506 53.0803H44.4287V51.5049H47.0905C47.1531 51.5049 47.2061 51.4856 47.2471 51.4495C47.288 51.4109 47.3073 51.3603 47.3073 51.2977V50.7485C47.3073 50.6859 47.288 50.6329 47.2471 50.5919C47.2061 50.551 47.1531 50.5317 47.0905 50.5317H44.4287V49.0093H47.2832C47.3458 49.0093 47.3988 48.99 47.4398 48.9539C47.4807 48.9154 47.5 48.8648 47.5 48.8021V48.2168C47.5 48.1542 47.4807 48.1012 47.4398 48.0602C47.3964 48.0193 47.3434 48 47.2808 48H43.4435C43.3785 48 43.3279 48.0193 43.2917 48.0602C43.2532 48.1012 43.2363 48.1542 43.2363 48.2168V53.88C43.2363 53.9378 43.2556 53.9884 43.2965 54.0269C43.3375 54.0679 43.3857 54.0872 43.4435 54.0872H47.3506C47.4133 54.0872 47.4663 54.0679 47.5072 54.0317C47.5482 53.9932 47.5674 53.9426 47.5674 53.88V53.2874C47.5674 53.2248 47.5458 53.1718 47.5072 53.1357C47.4663 53.0995 47.4133 53.0803 47.3506 53.0803Z" fill="#FACC6D"/>
<path d="M49.1932 54.0293C49.2342 54.0703 49.2823 54.0896 49.3402 54.0896H50.1399C50.2049 54.0896 50.2555 54.0703 50.2965 54.0293C50.3374 53.9884 50.3567 53.9402 50.3567 53.8824V51.7939H51.5491L52.662 53.8559C52.7029 53.9258 52.7487 53.9812 52.8017 54.0245C52.8547 54.0679 52.9269 54.0896 53.0185 54.0896H53.8182C53.864 54.0896 53.9073 54.0727 53.9435 54.0366C53.982 54.0028 54.0013 53.9571 54.0013 53.9065C54.0013 53.8776 53.9916 53.8463 53.9748 53.8101L52.7125 51.5916C53.0787 51.4639 53.3629 51.2568 53.5653 50.9701C53.7676 50.6835 53.8688 50.3269 53.8688 49.9054C53.8688 49.296 53.6664 48.8262 53.2642 48.4962C52.8643 48.1662 52.3054 48 51.5924 48H49.3402C49.2751 48 49.2245 48.0193 49.1884 48.0602C49.1499 48.1012 49.133 48.1542 49.133 48.2168V53.88C49.1306 53.9402 49.1523 53.9884 49.1932 54.0293ZM51.5659 48.9732C51.9128 48.9732 52.1754 49.0527 52.3488 49.2116C52.5222 49.3706 52.609 49.5995 52.609 49.8934C52.609 50.1896 52.5222 50.4137 52.3488 50.5678C52.1754 50.722 51.9128 50.7991 51.5659 50.7991H50.3567V48.9732H51.5659Z" fill="#FACC6D"/>
</svg>
