<svg width="68" height="68" viewBox="0 0 68 68" fill="none" xmlns="http://www.w3.org/2000/svg">
<g clip-path="url(#clip0_2511_11041)">
<rect width="68" height="68" fill="#EB2316"/>
<path fill-rule="evenodd" clip-rule="evenodd" d="M34 0C15.252 0 0 15.252 0 34C0 52.748 15.252 68 34 68C52.7466 68 68 52.748 68 34C68 15.252 52.7466 0 34 0Z" fill="white"/>
<path fill-rule="evenodd" clip-rule="evenodd" d="M51.1577 9.61299C48.5628 16.2686 42.6552 17.6534 34.0978 17.6534C33.1794 17.6534 32.2697 17.639 31.3917 17.626C30.5426 17.6144 29.7397 17.6014 28.9527 17.6014C28.2538 17.6014 27.5491 17.6101 26.8545 17.6404C28.053 14.6975 29.9664 12.6975 32.6899 11.4845C36.4863 9.79494 41.422 9.77761 45.7772 9.76462C47.6747 9.7574 49.4913 9.75018 51.1577 9.61299Z" fill="#008F32"/>
<path fill-rule="evenodd" clip-rule="evenodd" d="M53.8242 11.7487C49.9859 20.1097 41.4314 20.9473 34.0986 20.9473C32.4885 20.9473 30.9462 20.9083 29.5181 20.8996L27.6711 28.1227C37.1296 20.4116 49.6379 28.0563 48.3007 39.6924C47.3996 47.5292 41.8126 52.6542 35.9022 54.1271C29.4632 55.7329 22.3296 53.33 19.1311 46.7682C18.7917 46.0751 18.2011 44.6859 17.9758 43.9437L24.7657 42.1993C24.8856 42.5906 25.0892 42.969 25.3029 43.3141C29.8487 50.6455 39.0603 46.9791 40.1 39.3733C41.1585 31.6361 30.3022 27.5148 25.3549 36.5574L19.3332 33.9913L19.2292 33.9451L22.1332 22.2874C22.3123 21.4585 22.9159 19.1437 23.0199 18.7639C26.3022 6.69459 36.9202 6.50397 45.4372 6.4722C41.9152 5.0065 38.0538 4.19495 34.0004 4.19495C17.5383 4.19495 4.19531 17.5379 4.19531 34C4.19531 50.4621 17.5383 63.8051 34.0004 63.8051C50.4625 63.8051 63.8054 50.4621 63.8054 34C63.8054 25.1509 59.9469 17.2072 53.8242 11.7487Z" fill="#EB2316"/>
</g>
<defs>
<clipPath id="clip0_2511_11041">
<rect width="68" height="68" fill="white"/>
</clipPath>
</defs>
</svg>
