<svg width="68" height="68" viewBox="0 0 68 68" fill="none" xmlns="http://www.w3.org/2000/svg">
<rect width="68" height="68" fill="#1428A0"/>
<path d="M7.20391 32.4019C7.16345 32.2348 7.17303 32.058 7.19539 31.9665C7.25182 31.7024 7.43175 31.4075 7.95451 31.4075C8.44001 31.4075 8.72535 31.7088 8.72535 32.1603C8.72535 32.3136 8.72535 32.6734 8.72535 32.6734H10.794V32.091C10.794 30.2875 9.16826 30 7.99497 30C6.52251 30 5.31834 30.4887 5.09902 31.843C5.03833 32.2146 5.02875 32.5414 5.11605 32.9609C5.47485 34.6559 8.42191 35.1467 8.85098 36.2188C8.93083 36.4179 8.90741 36.6745 8.86695 36.831C8.79881 37.11 8.61142 37.3911 8.05672 37.3911C7.53822 37.3911 7.22839 37.0898 7.22839 36.6362L7.2252 35.8388H5V36.4722C5 38.3259 6.45543 38.8838 8.01413 38.8838C9.51215 38.8838 10.7429 38.3727 10.9431 36.9854C11.0432 36.27 10.9676 35.8047 10.9346 35.6279C10.5843 33.8872 7.44027 33.3719 7.20391 32.4019ZM34.1693 32.4222C34.132 32.2582 34.1427 32.0847 34.1618 31.9931C34.2215 31.728 34.3993 31.4384 34.9135 31.4384C35.3926 31.4384 35.6726 31.7365 35.6726 32.1847C35.6726 32.3359 35.6726 32.6915 35.6726 32.6915H37.7168V32.1134C37.7168 30.3269 36.1155 30.0458 34.955 30.0458C33.4943 30.0458 32.3018 30.527 32.0836 31.8717C32.0261 32.238 32.0112 32.5627 32.1038 32.9769C32.4594 34.6527 35.3766 35.1393 35.8004 36.1997C35.8749 36.4009 35.8536 36.6564 35.8153 36.8076C35.7514 37.0834 35.5662 37.3613 35.0157 37.3613C34.4993 37.3613 34.1895 37.0642 34.1895 36.617L34.1884 35.8217H31.9877V36.4541C31.9877 38.2865 33.4229 38.8401 34.9699 38.8401C36.4509 38.8401 37.6742 38.3344 37.8701 36.962C37.9638 36.2529 37.8936 35.7919 37.8552 35.6173C37.5156 33.8989 34.4046 33.3815 34.1693 32.4222ZM52.9972 36.9396L51.0446 30.264H47.9677V38.4696H50.0033L49.8852 31.58L51.9826 38.4696H54.9339V30.264H52.8855L52.9972 36.9396ZM13.8774 30.264L12.341 38.5558H14.5811L15.7385 30.8805L16.8681 38.5558H19.0922L17.5623 30.264H13.8774ZM26.4013 30.264L25.3547 36.7459L24.3092 30.264H20.9267L20.7478 38.5558H22.8197L22.8761 30.8805L24.3017 38.5558H26.4045L27.8312 30.8805L27.8876 38.5558H29.9648L29.7796 30.264H26.4013ZM45.669 30.264H43.5716V36.3977C43.5747 36.5042 43.5716 36.6245 43.5535 36.7129C43.5098 36.9183 43.3352 37.3155 42.7571 37.3155C42.1864 37.3155 42.0065 36.9194 41.966 36.7129C41.9447 36.6245 41.9426 36.5042 41.9447 36.3977V30.264H39.8483V36.2071C39.8462 36.3605 39.8579 36.6735 39.8664 36.7555C40.0112 38.3046 41.2314 38.8071 42.756 38.8071C44.2828 38.8071 45.5029 38.3046 45.6509 36.7555C45.6626 36.6735 45.6775 36.3605 45.669 36.2071V30.264ZM60.0668 33.9021V35.1116H60.9164V36.3104C60.9185 36.4179 60.9132 36.5329 60.8951 36.6256C60.861 36.8491 60.6492 37.2303 60.0455 37.2303C59.4461 37.2303 59.2374 36.8491 59.2012 36.6256C59.1863 36.5329 59.1799 36.4169 59.1799 36.3104V32.5212C59.1799 32.387 59.1895 32.2401 59.2172 32.1294C59.2587 31.9271 59.4375 31.5289 60.0412 31.5289C60.6758 31.5289 60.8334 31.9484 60.8696 32.1294C60.893 32.2486 60.8951 32.4488 60.8951 32.4488V32.9087H62.983V32.6372C62.983 32.6372 62.9925 32.353 62.967 32.0889C62.8105 30.5334 61.5286 30.0415 60.0593 30.0415C58.5869 30.0415 57.3316 30.5377 57.1485 32.0889C57.1314 32.2305 57.1069 32.486 57.1069 32.6372V36.123C57.1069 36.2753 57.1123 36.3924 57.1399 36.6703C57.2762 38.1832 58.5869 38.7187 60.0529 38.7187C61.5286 38.7187 62.8296 38.1821 62.9691 36.6703C62.9936 36.3924 62.9968 36.2753 63 36.123V33.9021H60.0668Z" fill="white"/>
</svg>
