<svg width="68" height="68" viewBox="0 0 68 68" fill="none" xmlns="http://www.w3.org/2000/svg">
<rect width="68" height="68" fill="white"/>
<g clip-path="url(#clip0_466_7604)">
<path d="M48.0134 52.0819L25.4033 56.5127C19.5051 57.7211 14 53.0889 14 46.8455V21.4691C14 15.2257 19.5051 10.5935 25.4033 11.8019L48.0134 16.2327C51.5523 16.8369 53.9116 19.8579 53.9116 23.2817V44.8315C53.9116 48.4567 51.3557 51.4777 48.0134 52.0819Z" fill="#FF5200"/>
<path d="M26.386 43.0192V25.9002C26.386 25.0946 27.1724 24.4904 27.9588 24.6918L44.6706 27.31L44.474 23.4834L28.5487 20.8652C25.4029 20.4624 22.6504 22.8792 22.6504 26.1016V43.0192C22.6504 46.2416 25.4029 48.6584 28.5487 48.2556L44.6706 45.6374V41.8108L27.7622 44.429C27.1724 44.429 26.386 43.8248 26.386 43.0192Z" fill="white"/>
</g>
<defs>
<clipPath id="clip0_466_7604">
<rect width="40" height="46" fill="white" transform="translate(14 11)"/>
</clipPath>
</defs>
</svg>
