<svg width="68" height="68" viewBox="0 0 68 68" fill="none" xmlns="http://www.w3.org/2000/svg">
<g clip-path="url(#clip0_466_7593)">
<rect width="68" height="68" fill="white"/>
<rect width="68" height="68" fill="#000078"/>
<path fill-rule="evenodd" clip-rule="evenodd" d="M57.1047 34.0081C57.1062 29.4381 55.7525 24.9703 53.2148 21.1696C50.677 17.3691 47.069 14.4064 42.8474 12.6565C38.6256 10.9065 33.9799 10.4479 29.4975 11.3384C25.0152 12.229 20.8976 14.4288 17.6656 17.6598C14.4335 20.8907 12.2322 25.0076 11.3401 29.4896C10.4479 33.9717 10.905 38.6177 12.6535 42.84C14.402 47.0622 17.3633 50.6711 21.1631 53.2102C24.9628 55.7494 29.4301 57.1046 34 57.1046C40.1264 57.1046 46.0019 54.6715 50.3346 50.3402C54.6674 46.0091 57.1025 40.1344 57.1047 34.0081ZM34.0241 53.6241C35.1468 43.9203 40.103 37.8976 47.1763 36.2135H47.1522C48.3712 28.6189 41.6428 21.9626 34 21.9705C26.3573 21.9786 19.6529 28.6189 20.8719 36.2135C27.9532 37.8976 32.8854 43.9203 34.0241 53.6241Z" fill="white"/>
</g>
<defs>
<clipPath id="clip0_466_7593">
<rect width="68" height="68" fill="white"/>
</clipPath>
</defs>
</svg>
