<svg width="68" height="68" viewBox="0 0 68 68" fill="none" xmlns="http://www.w3.org/2000/svg">
<rect width="68" height="68" fill="#0D0D0D"/>
<path fill-rule="evenodd" clip-rule="evenodd" d="M45.999 34.7006C45.999 35.1624 45.6089 35.55 45.1483 35.55H23.1188C22.8943 35.5471 22.6798 35.4567 22.5209 35.2981C22.3621 35.1394 22.2714 34.9251 22.2681 34.7006V19.1175C22.2681 18.6544 22.6595 18.2643 23.1188 18.2643H45.1483C45.6089 18.2643 45.999 18.6544 45.999 19.1175V34.7006ZM44.299 11H23.9669C19.0254 11 15.0025 15.0229 15.0025 19.9669V33.8525C15.0025 38.794 19.0254 42.8143 23.9669 42.8143H44.299C49.2442 42.8143 53.2633 38.794 53.2633 33.8525V19.9669C53.2633 15.0229 49.2442 11 44.299 11ZM53.1463 54.4488V48.5611C53.1463 48.4145 53.0881 48.2739 52.9845 48.1701C52.881 48.0663 52.7405 48.0078 52.5939 48.0075H15.5537C15.4069 48.0078 15.2663 48.0662 15.1625 48.17C15.0588 48.2738 15.0003 48.4144 15 48.5611V54.4488C15.0007 54.5953 15.0593 54.7354 15.1631 54.8387C15.2668 54.942 15.4073 55 15.5537 55H52.5939C52.74 54.9997 52.8802 54.9415 52.9836 54.8383C53.0871 54.735 53.1456 54.595 53.1463 54.4488Z" fill="#099DD8"/>
</svg>
