<svg width="44" height="36" viewBox="0 0 44 36" fill="none" xmlns="http://www.w3.org/2000/svg">
<g filter="url(#filter0_d_10331_302450)">
<path d="M22.8333 7.66663V10.1666H24.5V7.66663H22.8333ZM19.5 8.49996V10.1666H21.1667V8.49996H19.5ZM16.1667 11.8333C15.6375 11.8333 15.1245 11.9586 14.6579 12.2011C13.5412 11.577 12.0614 11.8033 11.1797 12.6992C9.42969 12.4317 7.83333 13.8316 7.83333 15.5833C7.83333 15.727 7.8624 15.8624 7.88379 16H7V16.8333C7 19.1341 8.86583 21 11.1667 21H17.4492C16.6542 20.1141 16.1667 18.9483 16.1667 17.6666V16H9.5765C9.52991 15.8691 9.5 15.7299 9.5 15.5833C9.5 14.7483 10.316 14.0812 11.1927 14.4196L11.8307 14.6653L12.1953 14.0875C12.4278 13.72 12.8225 13.5 13.25 13.5C13.6358 13.5 13.9126 13.6771 14.0785 13.8255L14.5993 14.291L15.1494 13.8613C15.3586 13.6963 15.7058 13.5 16.1667 13.5V11.8333ZM17.8333 11.8333V17.6666C17.8333 19.505 19.3283 21 21.1667 21H22.8333C24.6717 21 26.1667 19.505 26.1667 17.6666V11.8333H17.8333Z" fill="url(#paint0_linear_10331_302450)"/>
</g>
<defs>
<filter id="filter0_d_10331_302450" x="0" y="0.666626" width="43.1666" height="37.3334" filterUnits="userSpaceOnUse" color-interpolation-filters="sRGB">
<feFlood flood-opacity="0" result="BackgroundImageFix"/>
<feColorMatrix in="SourceAlpha" type="matrix" values="0 0 0 0 0 0 0 0 0 0 0 0 0 0 0 0 0 0 127 0" result="hardAlpha"/>
<feOffset dx="5" dy="5"/>
<feGaussianBlur stdDeviation="6"/>
<feColorMatrix type="matrix" values="0 0 0 0 0.15375 0 0 0 0 0.63135 0 0 0 0 0.9 0 0 0 0.16 0"/>
<feBlend mode="normal" in2="BackgroundImageFix" result="effect1_dropShadow_10331_302450"/>
<feBlend mode="normal" in="SourceGraphic" in2="effect1_dropShadow_10331_302450" result="shape"/>
</filter>
<linearGradient id="paint0_linear_10331_302450" x1="16.5833" y1="7.66663" x2="17.4181" y2="21.6484" gradientUnits="userSpaceOnUse">
<stop stop-color="#F07E01"/>
<stop offset="1" stop-color="#E81965"/>
</linearGradient>
</defs>
</svg>
