<svg width="42" height="36" viewBox="0 0 42 36" fill="none" xmlns="http://www.w3.org/2000/svg">
<g filter="url(#filter0_d_10331_302414)">
<path fill-rule="evenodd" clip-rule="evenodd" d="M16 24.3333C20.6025 24.3333 24.3333 20.6025 24.3333 16C24.3333 11.3983 20.6025 7.66663 16 7.66663C11.3975 7.66663 7.66663 11.3983 7.66663 16C7.66663 20.6025 11.3975 24.3333 16 24.3333ZM19.1345 16.5954C19.2671 16.4261 19.3334 16.2147 19.3334 16.0041C19.3334 15.7692 19.2588 15.5505 19.118 15.3723C19.1055 15.3604 19.08 15.3333 19.047 15.2981C18.9923 15.2399 18.9168 15.1594 18.8445 15.0888C18.1651 14.3759 16.3919 13.2095 15.4638 12.853C15.323 12.7963 14.9667 12.6756 14.7761 12.6667C14.5938 12.6667 14.4198 12.708 14.2541 12.7882C14.0469 12.9016 13.8812 13.0807 13.7901 13.2905C13.7321 13.4363 13.6409 13.8737 13.6409 13.8818C13.5498 14.3597 13.5001 15.1382 13.5001 15.996C13.5001 16.8142 13.5498 17.5594 13.6243 18.0462C13.6264 18.0481 13.6337 18.0834 13.645 18.1383C13.6788 18.3028 13.7487 18.6431 13.8232 18.7834C14.0055 19.1236 14.3618 19.3334 14.743 19.3334H14.7761C15.0247 19.3261 15.5467 19.1147 15.5467 19.1066C16.425 18.751 18.1568 17.6412 18.8528 16.9033L18.9025 16.8547C18.9937 16.7656 19.1097 16.6287 19.1345 16.5954Z" fill="url(#paint0_linear_10331_302414)"/>
</g>
<defs>
<filter id="filter0_d_10331_302414" x="0.666626" y="0.666626" width="40.6666" height="40.6666" filterUnits="userSpaceOnUse" color-interpolation-filters="sRGB">
<feFlood flood-opacity="0" result="BackgroundImageFix"/>
<feColorMatrix in="SourceAlpha" type="matrix" values="0 0 0 0 0 0 0 0 0 0 0 0 0 0 0 0 0 0 127 0" result="hardAlpha"/>
<feOffset dx="5" dy="5"/>
<feGaussianBlur stdDeviation="6"/>
<feColorMatrix type="matrix" values="0 0 0 0 0.15375 0 0 0 0 0.63135 0 0 0 0 0.9 0 0 0 0.16 0"/>
<feBlend mode="normal" in2="BackgroundImageFix" result="effect1_dropShadow_10331_302414"/>
<feBlend mode="normal" in="SourceGraphic" in2="effect1_dropShadow_10331_302414" result="shape"/>
</filter>
<linearGradient id="paint0_linear_10331_302414" x1="16" y1="7.66663" x2="17.4942" y2="25.0779" gradientUnits="userSpaceOnUse">
<stop stop-color="#F07E01"/>
<stop offset="1" stop-color="#E81965"/>
</linearGradient>
</defs>
</svg>
