<svg width="42" height="35" viewBox="0 0 42 35" fill="none" xmlns="http://www.w3.org/2000/svg">
<g filter="url(#filter0_d_10331_302420)">
<path d="M16 7.5C14.9056 7.5 13.822 7.71555 12.8109 8.13434C11.7999 8.55313 10.8812 9.16696 10.1074 9.94078C8.5446 11.5036 7.66663 13.6232 7.66663 15.8333C7.66663 16.0543 7.75442 16.2663 7.9107 16.4226C8.06698 16.5789 8.27895 16.6667 8.49996 16.6667H15.1666V21.6667C15.1666 22.3297 15.43 22.9656 15.8989 23.4344C16.3677 23.9033 17.0036 24.1667 17.6666 24.1667C18.3297 24.1667 18.9656 23.9033 19.4344 23.4344C19.9032 22.9656 20.1666 22.3297 20.1666 21.6667C20.1666 21.4457 20.0788 21.2337 19.9225 21.0774C19.7663 20.9211 19.5543 20.8333 19.3333 20.8333C19.1123 20.8333 18.9003 20.9211 18.744 21.0774C18.5878 21.2337 18.5 21.4457 18.5 21.6667C18.5 21.8877 18.4122 22.0996 18.2559 22.2559C18.0996 22.4122 17.8876 22.5 17.6666 22.5C17.4456 22.5 17.2337 22.4122 17.0774 22.2559C16.9211 22.0996 16.8333 21.8877 16.8333 21.6667V16.6667H23.5C23.721 16.6667 23.9329 16.5789 24.0892 16.4226C24.2455 16.2663 24.3333 16.0543 24.3333 15.8333C24.3333 14.739 24.1177 13.6554 23.699 12.6443C23.2802 11.6333 22.6663 10.7146 21.8925 9.94078C21.1187 9.16696 20.2 8.55313 19.189 8.13434C18.1779 7.71555 17.0943 7.5 16 7.5Z" fill="url(#paint0_linear_10331_302420)"/>
</g>
<defs>
<filter id="filter0_d_10331_302420" x="0.666626" y="0.5" width="40.6666" height="40.6666" filterUnits="userSpaceOnUse" color-interpolation-filters="sRGB">
<feFlood flood-opacity="0" result="BackgroundImageFix"/>
<feColorMatrix in="SourceAlpha" type="matrix" values="0 0 0 0 0 0 0 0 0 0 0 0 0 0 0 0 0 0 127 0" result="hardAlpha"/>
<feOffset dx="5" dy="5"/>
<feGaussianBlur stdDeviation="6"/>
<feColorMatrix type="matrix" values="0 0 0 0 0.15375 0 0 0 0 0.63135 0 0 0 0 0.9 0 0 0 0.16 0"/>
<feBlend mode="normal" in2="BackgroundImageFix" result="effect1_dropShadow_10331_302420"/>
<feBlend mode="normal" in="SourceGraphic" in2="effect1_dropShadow_10331_302420" result="shape"/>
</filter>
<linearGradient id="paint0_linear_10331_302420" x1="16" y1="7.5" x2="17.4942" y2="24.9113" gradientUnits="userSpaceOnUse">
<stop stop-color="#F07E01"/>
<stop offset="1" stop-color="#E81965"/>
</linearGradient>
</defs>
</svg>
