<svg width="41" height="36" viewBox="0 0 41 36" fill="none" xmlns="http://www.w3.org/2000/svg">
<g filter="url(#filter0_d_10331_302456)">
<path d="M8.33334 7.66663C7.75001 7.66663 7.33301 8.25028 7.58301 8.83362L9.16667 11.8333V19.3333C9.16667 20.2541 9.91251 21 10.8333 21H18.3333C19.2542 21 20 20.2541 20 19.3333V9.33329H20.8333C21.2955 9.33329 21.6667 9.7045 21.6667 10.1666V15.1666H23.3333V10.1666C23.3333 8.79541 22.2046 7.66663 20.8333 7.66663H20H19.1667H8.33334ZM15.8333 13.5H17.5V18.5H15.8333V13.5ZM8.33334 22.6666V24.3333H20.8333V22.6666H8.33334Z" fill="url(#paint0_linear_10331_302456)"/>
</g>
<defs>
<filter id="filter0_d_10331_302456" x="0.509033" y="0.666626" width="39.8243" height="40.6666" filterUnits="userSpaceOnUse" color-interpolation-filters="sRGB">
<feFlood flood-opacity="0" result="BackgroundImageFix"/>
<feColorMatrix in="SourceAlpha" type="matrix" values="0 0 0 0 0 0 0 0 0 0 0 0 0 0 0 0 0 0 127 0" result="hardAlpha"/>
<feOffset dx="5" dy="5"/>
<feGaussianBlur stdDeviation="6"/>
<feColorMatrix type="matrix" values="0 0 0 0 0.15375 0 0 0 0 0.63135 0 0 0 0 0.9 0 0 0 0.16 0"/>
<feBlend mode="normal" in2="BackgroundImageFix" result="effect1_dropShadow_10331_302456"/>
<feBlend mode="normal" in="SourceGraphic" in2="effect1_dropShadow_10331_302456" result="shape"/>
</filter>
<linearGradient id="paint0_linear_10331_302456" x1="15.4212" y1="7.66663" x2="16.9938" y2="25.064" gradientUnits="userSpaceOnUse">
<stop stop-color="#F07E01"/>
<stop offset="1" stop-color="#E81965"/>
</linearGradient>
</defs>
</svg>
