<svg width="42" height="35" viewBox="0 0 42 35" fill="none" xmlns="http://www.w3.org/2000/svg">
<g filter="url(#filter0_d_10331_302438)">
<path fill-rule="evenodd" clip-rule="evenodd" d="M22.8323 8.96237C23.2986 9.41842 23.6715 9.96101 23.9301 10.5598C24.1982 11.1829 24.3352 11.8446 24.3333 12.5257C24.3333 13.1681 24.2021 13.8375 23.9416 14.5185C23.7256 15.0877 23.4111 15.678 23.0118 16.2741C22.379 17.2175 21.5089 18.2015 20.4285 19.1989C18.6362 20.8522 16.8652 21.9924 16.79 22.0406L16.3327 22.3339C16.1302 22.4631 15.8697 22.4631 15.6672 22.3339L15.2099 22.0406C15.1347 21.9943 13.3617 20.8522 11.5714 19.1989C10.491 18.2015 9.62094 17.2175 8.98815 16.2741C8.5888 15.678 8.27626 15.0877 8.05826 14.5185C7.79781 13.8375 7.66663 13.1681 7.66663 12.5257C7.66663 11.8446 7.8036 11.1829 8.07177 10.5598C8.32966 9.96062 8.70262 9.4179 9.1695 8.96237C9.6383 8.50321 10.1843 8.14245 10.7901 7.89165C11.4171 7.6312 12.0807 7.50001 12.7656 7.50001C13.7167 7.50001 14.6447 7.76046 15.4511 8.25241C15.644 8.3701 15.8273 8.49935 16.0009 8.64019C16.1745 8.49935 16.3578 8.3701 16.5507 8.25241C17.3572 7.76046 18.2851 7.50001 19.2362 7.50001C19.9142 7.49845 20.5857 7.63157 21.2118 7.89165C21.8156 8.14146 22.3657 8.50496 22.8323 8.96237ZM18.1873 12.0655C18.4273 11.8256 18.8163 11.8256 19.0562 12.0655C19.2961 12.3054 19.2961 12.6944 19.0562 12.9344L15.601 16.3895C15.4808 16.5098 15.323 16.5698 15.1654 16.5694C14.9483 16.6284 14.7066 16.5727 14.5361 16.4022L12.7801 14.6462C12.5268 14.3929 12.5268 13.9822 12.7801 13.7289C13.0334 13.4756 13.4441 13.4756 13.6974 13.7289L15.1106 15.1422L18.1873 12.0655Z" fill="url(#paint0_linear_10331_302438)"/>
</g>
<defs>
<filter id="filter0_d_10331_302438" x="0.666626" y="0.5" width="40.6666" height="38.9308" filterUnits="userSpaceOnUse" color-interpolation-filters="sRGB">
<feFlood flood-opacity="0" result="BackgroundImageFix"/>
<feColorMatrix in="SourceAlpha" type="matrix" values="0 0 0 0 0 0 0 0 0 0 0 0 0 0 0 0 0 0 127 0" result="hardAlpha"/>
<feOffset dx="5" dy="5"/>
<feGaussianBlur stdDeviation="6"/>
<feColorMatrix type="matrix" values="0 0 0 0 0.15375 0 0 0 0 0.63135 0 0 0 0 0.9 0 0 0 0.16 0"/>
<feBlend mode="normal" in2="BackgroundImageFix" result="effect1_dropShadow_10331_302438"/>
<feBlend mode="normal" in="SourceGraphic" in2="effect1_dropShadow_10331_302438" result="shape"/>
</filter>
<linearGradient id="paint0_linear_10331_302438" x1="16" y1="7.5" x2="17.2009" y2="23.1204" gradientUnits="userSpaceOnUse">
<stop stop-color="#F07E01"/>
<stop offset="1" stop-color="#E81965"/>
</linearGradient>
</defs>
</svg>
